<svg width="1321" height="321" viewBox="0 0 1321 321" fill="none" xmlns="http://www.w3.org/2000/svg">
<g clip-path="url(#clip0_67_42)">
<path d="M39 258.672L73.048 72.048H111.704L147.8 131.44L150.872 72.048L210.264 81.264L197.72 260.976L148.568 257.904L110.68 200.048L99.672 261.232L39 258.672ZM1015.72 72.816L1065.38 69.744L1103.78 250.992L1022.38 259.952L1015.72 72.816Z" fill="#0B9ED6"/>
<path d="M216.03 72.816L265.694 69.744L304.094 250.992L222.686 259.952L216.03 72.816ZM774.694 72.304L855.59 248.688L778.278 260.976L772.134 215.664L709.926 214.128L695.846 262.512L621.35 249.2L723.494 77.424L774.694 72.304ZM736.55 139.376L726.054 165.488L765.222 166.512L756.262 140.144L736.55 139.376Z" fill="#E71D08"/>
<path d="M308.25 258.672L342.298 72.048H380.954L417.05 131.44L420.122 72.048L479.514 81.264L466.97 260.976L417.818 257.904L379.93 200.048L368.922 261.232L308.25 258.672ZM1241.57 74.352L1297.38 143.728L1281.51 235.12L1180.39 261.488L1099.75 190.32L1111.78 110.192L1171.94 72.048L1241.57 74.352ZM1187.04 138.864L1173.99 168.048L1196.52 183.152L1220.32 174.448L1219.04 146.032L1187.04 138.864Z" fill="#50AF31"/>
<path d="M484 72.816L540.064 71.536L652.448 76.656V126.832L601.504 131.696L620.448 220.528L594.08 253.808L544.16 262H488.608L490.4 205.68L551.328 201.328L544.416 131.696L484 126.832V72.816Z" fill="#FFCC01"/>
<path d="M947.43 72.816L994.79 107.376L999.142 167.024L972.518 196.72L1019.88 238.448L964.326 262.512L906.214 212.848L914.918 262.256H856.038L841.19 81.008L947.43 72.816ZM906.214 125.808L904.678 162.16L920.294 164.208L935.91 141.68L906.214 125.808Z" fill="#FFCD00"/>
<path d="M39 258.672L24.2436 255.98L21.1507 272.932L38.3677 273.659L39 258.672ZM73.048 72.048V57.048H60.537L58.2916 69.3558L73.048 72.048ZM111.704 72.048L124.522 64.2576L120.141 57.048H111.704V72.048ZM147.8 131.44L134.982 139.23L160.265 180.832L162.78 132.215L147.8 131.44ZM150.872 72.048L153.172 57.2254L136.75 54.6772L135.892 71.2732L150.872 72.048ZM210.264 81.264L225.228 82.3085L226.188 68.5554L212.564 66.4414L210.264 81.264ZM197.72 260.976L196.784 275.947L211.647 276.876L212.684 262.02L197.72 260.976ZM148.568 257.904L136.019 266.122L140.135 272.406L147.632 272.875L148.568 257.904ZM110.68 200.048L123.229 191.83L102.588 160.312L95.917 197.392L110.68 200.048ZM99.672 261.232L99.0397 276.219L112.117 276.77L114.435 263.888L99.672 261.232ZM53.7564 261.364L87.8044 74.7402L58.2916 69.3558L24.2436 255.98L53.7564 261.364ZM73.048 87.048H111.704V57.048H73.048V87.048ZM98.8857 79.8384L134.982 139.23L160.618 123.65L124.522 64.2576L98.8857 79.8384ZM162.78 132.215L165.852 72.8228L135.892 71.2732L132.82 130.665L162.78 132.215ZM148.572 86.8706L207.964 96.0866L212.564 66.4414L153.172 57.2254L148.572 86.8706ZM195.3 80.2195L182.756 259.932L212.684 262.02L225.228 82.3085L195.3 80.2195ZM198.656 246.005L149.504 242.933L147.632 272.875L196.784 275.947L198.656 246.005ZM161.117 249.686L123.229 191.83L98.1313 208.266L136.019 266.122L161.117 249.686ZM95.917 197.392L84.909 258.576L114.435 263.888L125.443 202.704L95.917 197.392ZM100.304 246.245L39.6323 243.685L38.3677 273.659L99.0397 276.219L100.304 246.245ZM216.03 72.816L215.104 57.8446L200.52 58.7467L201.039 73.3492L216.03 72.816ZM265.694 69.744L280.368 66.635L277.686 53.9736L264.768 54.7726L265.694 69.744ZM304.094 250.992L305.735 265.902L322.202 264.09L318.768 247.883L304.094 250.992ZM222.686 259.952L207.695 260.485L208.27 276.629L224.327 274.862L222.686 259.952ZM216.956 87.7874L266.62 84.7154L264.768 54.7726L215.104 57.8446L216.956 87.7874ZM251.02 72.8529L289.42 254.101L318.768 247.883L280.368 66.635L251.02 72.8529ZM302.453 236.082L221.045 245.042L224.327 274.862L305.735 265.902L302.453 236.082ZM237.677 259.419L231.021 72.2828L201.039 73.3492L207.695 260.485L237.677 259.419ZM308.25 258.672L293.494 255.98L290.401 272.932L307.618 273.659L308.25 258.672ZM342.298 72.048V57.048H329.787L327.542 69.3558L342.298 72.048ZM380.954 72.048L393.772 64.2576L389.391 57.048H380.954V72.048ZM417.05 131.44L404.232 139.23L429.515 180.832L432.03 132.215L417.05 131.44ZM420.122 72.048L422.422 57.2254L406 54.6772L405.142 71.2732L420.122 72.048ZM479.514 81.264L494.478 82.3085L495.438 68.5554L481.814 66.4414L479.514 81.264ZM466.97 260.976L466.034 275.947L480.897 276.876L481.934 262.02L466.97 260.976ZM417.818 257.904L405.269 266.122L409.385 272.406L416.882 272.875L417.818 257.904ZM379.93 200.048L392.479 191.83L371.838 160.312L365.167 197.392L379.93 200.048ZM368.922 261.232L368.29 276.219L381.367 276.77L383.685 263.888L368.922 261.232ZM323.006 261.364L357.054 74.7402L327.542 69.3558L293.494 255.98L323.006 261.364ZM342.298 87.048H380.954V57.048H342.298V87.048ZM368.136 79.8384L404.232 139.23L429.868 123.65L393.772 64.2576L368.136 79.8384ZM432.03 132.215L435.102 72.8228L405.142 71.2732L402.07 130.665L432.03 132.215ZM417.822 86.8706L477.214 96.0866L481.814 66.4414L422.422 57.2254L417.822 86.8706ZM464.55 80.2195L452.006 259.932L481.934 262.02L494.478 82.3085L464.55 80.2195ZM467.906 246.005L418.754 242.933L416.882 272.875L466.034 275.947L467.906 246.005ZM430.367 249.686L392.479 191.83L367.381 208.266L405.269 266.122L430.367 249.686ZM365.167 197.392L354.159 258.576L383.685 263.888L394.693 202.704L365.167 197.392ZM369.554 246.245L308.882 243.685L307.618 273.659L368.29 276.219L369.554 246.245ZM484 72.816L483.658 57.8199L469 58.1546V72.816H484ZM540.064 71.536L540.747 56.5515L540.234 56.5282L539.722 56.5399L540.064 71.536ZM652.448 76.656H667.448V62.3238L653.131 61.6715L652.448 76.656ZM652.448 126.832L653.874 141.764L667.448 140.468V126.832H652.448ZM601.504 131.696L600.078 116.764L583.323 118.364L586.834 134.824L601.504 131.696ZM620.448 220.528L632.205 229.843L636.591 224.307L635.118 217.399L620.448 220.528ZM594.08 253.808L596.509 268.61L602.234 267.671L605.837 263.123L594.08 253.808ZM544.16 262V277H545.383L546.589 276.802L544.16 262ZM488.608 262L473.616 261.523L473.123 277H488.608V262ZM490.4 205.68L489.331 190.718L475.838 191.682L475.408 205.203L490.4 205.68ZM551.328 201.328L552.397 216.29L567.778 215.191L566.255 199.846L551.328 201.328ZM544.416 131.696L559.343 130.214L558.105 117.75L545.62 116.744L544.416 131.696ZM484 126.832H469V140.673L482.796 141.784L484 126.832ZM484.342 87.8121L540.406 86.5321L539.722 56.5399L483.658 57.8199L484.342 87.8121ZM539.381 86.5205L651.765 91.6404L653.131 61.6715L540.747 56.5515L539.381 86.5205ZM637.448 76.656V126.832H667.448V76.656H637.448ZM651.022 111.9L600.078 116.764L602.93 146.628L653.874 141.764L651.022 111.9ZM586.834 134.824L605.778 223.656L635.118 217.399L616.174 128.567L586.834 134.824ZM608.691 211.213L582.323 244.493L605.837 263.123L632.205 229.843L608.691 211.213ZM591.651 239.006L541.731 247.198L546.589 276.802L596.509 268.61L591.651 239.006ZM544.16 247H488.608V277H544.16V247ZM503.6 262.477L505.392 206.157L475.408 205.203L473.616 261.523L503.6 262.477ZM491.469 220.642L552.397 216.29L550.259 186.366L489.331 190.718L491.469 220.642ZM566.255 199.846L559.343 130.214L529.489 133.178L536.401 202.81L566.255 199.846ZM545.62 116.744L485.204 111.88L482.796 141.784L543.212 146.648L545.62 116.744ZM499 126.832V72.816H469V126.832H499ZM774.694 72.304L788.328 66.0508L783.862 56.3124L773.201 57.3784L774.694 72.304ZM855.59 248.688L857.945 263.502L877.464 260.4L869.224 242.435L855.59 248.688ZM778.278 260.976L763.414 262.991L765.476 278.199L780.633 275.79L778.278 260.976ZM772.134 215.664L786.998 213.649L785.281 200.984L772.504 200.669L772.134 215.664ZM709.926 214.128L710.296 199.133L698.75 198.847L695.523 209.937L709.926 214.128ZM695.846 262.512L693.207 277.278L706.481 279.65L710.249 266.703L695.846 262.512ZM621.35 249.2L608.457 241.533L597.384 260.155L618.711 263.966L621.35 249.2ZM723.494 77.424L722.001 62.4984L714.47 63.2516L710.601 69.7575L723.494 77.424ZM736.55 139.376L737.134 124.387L726.574 123.976L722.632 133.782L736.55 139.376ZM726.054 165.488L712.136 159.894L704.087 179.919L725.662 180.483L726.054 165.488ZM765.222 166.512L764.83 181.507L786.351 182.07L779.424 161.686L765.222 166.512ZM756.262 140.144L770.464 135.318L767.148 125.557L756.846 125.155L756.262 140.144ZM761.06 78.5572L841.956 254.941L869.224 242.435L788.328 66.0508L761.06 78.5572ZM853.235 233.874L775.923 246.162L780.633 275.79L857.945 263.502L853.235 233.874ZM793.142 258.961L786.998 213.649L757.27 217.679L763.414 262.991L793.142 258.961ZM772.504 200.669L710.296 199.133L709.556 229.123L771.764 230.659L772.504 200.669ZM695.523 209.937L681.443 258.321L710.249 266.703L724.329 218.319L695.523 209.937ZM698.485 247.746L623.989 234.434L618.711 263.966L693.207 277.278L698.485 247.746ZM634.243 256.867L736.387 85.0905L710.601 69.7575L608.457 241.533L634.243 256.867ZM724.987 92.3496L776.187 87.2295L773.201 57.3784L722.001 62.4984L724.987 92.3496ZM722.632 133.782L712.136 159.894L739.972 171.082L750.468 144.97L722.632 133.782ZM725.662 180.483L764.83 181.507L765.614 151.517L726.446 150.493L725.662 180.483ZM779.424 161.686L770.464 135.318L742.06 144.97L751.02 171.338L779.424 161.686ZM756.846 125.155L737.134 124.387L735.966 154.365L755.678 155.133L756.846 125.155ZM947.43 72.816L956.272 60.6991L951.798 57.4346L946.277 57.8604L947.43 72.816ZM994.79 107.376L1009.75 106.284L1009.24 99.3548L1003.63 95.2591L994.79 107.376ZM999.142 167.024L1010.31 177.037L1014.57 172.291L1014.1 165.932L999.142 167.024ZM972.518 196.72L961.349 186.707L951.249 197.972L962.602 207.975L972.518 196.72ZM1019.88 238.448L1025.84 252.212L1047.53 242.818L1029.79 227.193L1019.88 238.448ZM964.326 262.512L954.581 273.915L961.698 279.997L970.288 276.276L964.326 262.512ZM906.214 212.848L915.959 201.445L884.191 174.295L891.441 215.45L906.214 212.848ZM914.918 262.256V277.256H932.791L929.691 259.654L914.918 262.256ZM856.038 262.256L841.088 263.481L842.217 277.256H856.038V262.256ZM841.19 81.008L840.037 66.0524L825.01 67.2111L826.24 82.2327L841.19 81.008ZM906.214 125.808L913.285 112.579L892.235 101.328L891.227 125.175L906.214 125.808ZM904.678 162.16L889.691 161.527L889.112 175.247L902.727 177.033L904.678 162.16ZM920.294 164.208L918.343 179.081L927.412 180.27L932.622 172.753L920.294 164.208ZM935.91 141.68L948.238 150.225L957.83 136.388L942.981 128.451L935.91 141.68ZM938.588 84.9329L985.948 119.493L1003.63 95.2591L956.272 60.6991L938.588 84.9329ZM979.83 108.468L984.182 168.116L1014.1 165.932L1009.75 106.284L979.83 108.468ZM987.973 157.011L961.349 186.707L983.687 206.733L1010.31 177.037L987.973 157.011ZM962.602 207.975L1009.96 249.703L1029.79 227.193L982.434 185.465L962.602 207.975ZM1013.92 224.684L958.364 248.748L970.288 276.276L1025.84 252.212L1013.92 224.684ZM974.071 251.109L915.959 201.445L896.469 224.251L954.581 273.915L974.071 251.109ZM891.441 215.45L900.145 264.858L929.691 259.654L920.987 210.246L891.441 215.45ZM914.918 247.256H856.038V277.256H914.918V247.256ZM870.988 261.031L856.14 79.7833L826.24 82.2327L841.088 263.481L870.988 261.031ZM842.343 95.9636L948.583 87.7716L946.277 57.8604L840.037 66.0524L842.343 95.9636ZM891.227 125.175L889.691 161.527L919.665 162.793L921.201 126.441L891.227 125.175ZM902.727 177.033L918.343 179.081L922.245 149.335L906.629 147.287L902.727 177.033ZM932.622 172.753L948.238 150.225L923.582 133.135L907.966 155.663L932.622 172.753ZM942.981 128.451L913.285 112.579L899.143 139.037L928.839 154.909L942.981 128.451ZM1015.72 72.816L1014.79 57.8446L1000.21 58.7467L1000.73 73.3492L1015.72 72.816ZM1065.38 69.744L1080.06 66.635L1077.38 53.9736L1064.46 54.7726L1065.38 69.744ZM1103.78 250.992L1105.43 265.902L1121.89 264.09L1118.46 247.883L1103.78 250.992ZM1022.38 259.952L1007.39 260.485L1007.96 276.629L1024.02 274.862L1022.38 259.952ZM1016.65 87.7874L1066.31 84.7154L1064.46 54.7726L1014.79 57.8446L1016.65 87.7874ZM1050.71 72.8529L1089.11 254.101L1118.46 247.883L1080.06 66.635L1050.71 72.8529ZM1102.14 236.082L1020.73 245.042L1024.02 274.862L1105.43 265.902L1102.14 236.082ZM1037.37 259.419L1030.71 72.2828L1000.73 73.3492L1007.39 260.485L1037.37 259.419ZM1241.57 74.352L1253.26 64.95L1248.95 59.5878L1242.07 59.3602L1241.57 74.352ZM1297.38 143.728L1312.16 146.295L1313.32 139.611L1309.07 134.326L1297.38 143.728ZM1281.51 235.12L1285.29 249.635L1294.63 247.199L1296.29 237.687L1281.51 235.12ZM1180.39 261.488L1170.46 272.735L1176.45 278.017L1184.17 276.003L1180.39 261.488ZM1099.75 190.32L1084.91 188.093L1083.7 196.165L1089.82 201.567L1099.75 190.32ZM1111.78 110.192L1103.75 97.5238L1097.96 101.191L1096.95 107.965L1111.78 110.192ZM1171.94 72.048L1172.44 57.0562L1167.81 56.9032L1163.91 59.3798L1171.94 72.048ZM1187.04 138.864L1190.32 124.227L1178.36 121.547L1173.35 132.739L1187.04 138.864ZM1173.99 168.048L1160.3 161.923L1155.13 173.465L1165.63 180.507L1173.99 168.048ZM1196.52 183.152L1188.16 195.611L1194.5 199.86L1201.67 197.24L1196.52 183.152ZM1220.32 174.448L1225.47 188.536L1235.8 184.76L1235.31 173.773L1220.32 174.448ZM1219.04 146.032L1234.03 145.357L1233.51 133.901L1222.32 131.395L1219.04 146.032ZM1229.88 83.7539L1285.69 153.13L1309.07 134.326L1253.26 64.95L1229.88 83.7539ZM1282.6 141.161L1266.73 232.553L1296.29 237.687L1312.16 146.295L1282.6 141.161ZM1277.72 220.605L1176.6 246.973L1184.17 276.003L1285.29 249.635L1277.72 220.605ZM1190.31 250.241L1109.67 179.073L1089.82 201.567L1170.46 272.735L1190.31 250.241ZM1114.58 192.547L1126.61 112.419L1096.95 107.965L1084.91 188.093L1114.58 192.547ZM1119.81 122.86L1179.97 84.7162L1163.91 59.3798L1103.75 97.5238L1119.81 122.86ZM1171.44 87.0398L1241.08 89.3438L1242.07 59.3602L1172.44 57.0562L1171.44 87.0398ZM1173.35 132.739L1160.3 161.923L1187.68 174.173L1200.74 144.989L1173.35 132.739ZM1165.63 180.507L1188.16 195.611L1204.87 170.693L1182.34 155.589L1165.63 180.507ZM1201.67 197.24L1225.47 188.536L1215.17 160.36L1191.37 169.064L1201.67 197.24ZM1235.31 173.773L1234.03 145.357L1204.06 146.707L1205.34 175.123L1235.31 173.773ZM1222.32 131.395L1190.32 124.227L1183.77 153.501L1215.77 160.669L1222.32 131.395Z" fill="black"/>
<path d="M1238.99 87.984C1238.02 88.7493 1237.77 88.9105 1237.84 88.6688C1237.97 88.3465 1237.42 87.9034 1236.9 87.9034C1236.21 87.9034 1235.27 88.4539 1233.14 90.1055C1232.15 90.8709 1226.34 95.3423 1220.23 100.042C1214.12 104.742 1208.78 108.85 1208.39 109.159C1206.34 110.744 1205.89 111.335 1205.89 112.422C1205.88 112.932 1205.94 113.201 1206.13 113.429C1206.27 113.59 1206.31 113.684 1206.23 113.631C1205.99 113.496 1206.02 113.564 1206.58 114.866C1207.37 116.706 1207.53 117.525 1207.53 119.458C1207.53 121.499 1207.3 122.506 1206.48 124.225C1206.01 125.192 1205.66 125.675 1204.73 126.642C1204.08 127.327 1203.23 128.079 1202.76 128.361C1199.94 130.08 1196.25 130.147 1193.36 128.522C1192.9 128.267 1192.48 128.092 1192.43 128.133C1192.38 128.159 1192.09 127.891 1191.78 127.515C1189.62 124.87 1188.88 121.016 1189.91 117.699C1190.28 116.531 1190.55 115.981 1191.5 114.53C1191.95 113.846 1192.32 113.255 1192.32 113.214C1192.32 113.188 1191.51 112.516 1190.53 111.737C1188.94 110.462 1188.43 109.992 1188.92 110.274C1188.99 110.314 1188.9 110.207 1188.69 110.005C1188.48 109.817 1188.24 109.696 1188.15 109.723C1188.06 109.75 1187.96 109.71 1187.91 109.629C1187.85 109.535 1187.88 109.522 1188 109.589C1188.15 109.696 1188.15 109.67 1188 109.482C1187.91 109.347 1187.73 109.267 1187.62 109.28C1187.51 109.307 1187.41 109.226 1187.41 109.119C1187.41 109.012 1187.31 108.918 1187.2 108.918C1187.08 108.918 1186.94 108.864 1186.88 108.797C1186.81 108.73 1186.85 108.716 1186.97 108.783C1187.13 108.891 1187.13 108.877 1186.98 108.676C1186.8 108.434 1186.52 108.354 1186.65 108.582C1186.78 108.797 1186.64 108.73 1186.44 108.488C1186.29 108.287 1186.29 108.273 1186.46 108.38C1186.62 108.488 1186.62 108.474 1186.47 108.273C1186.28 108.018 1186.01 107.964 1186.15 108.206C1186.22 108.3 1186.19 108.313 1186.09 108.26C1186 108.193 1185.96 108.112 1186 108.072C1186.09 107.978 1185.83 107.642 1185.67 107.642C1185.6 107.642 1185.59 107.723 1185.64 107.803C1185.69 107.911 1185.68 107.937 1185.62 107.87C1185.55 107.803 1185.5 107.682 1185.5 107.602C1185.5 107.508 1185.4 107.441 1185.29 107.441C1185.17 107.441 1185.03 107.387 1184.97 107.32C1184.9 107.253 1184.94 107.239 1185.06 107.306C1185.22 107.414 1185.22 107.4 1185.07 107.199C1184.89 106.957 1184.61 106.877 1184.74 107.105C1184.87 107.32 1184.73 107.253 1184.53 107.011C1184.38 106.809 1184.38 106.796 1184.55 106.903C1184.71 107.011 1184.71 106.997 1184.56 106.796C1184.37 106.541 1184.1 106.487 1184.24 106.729C1184.31 106.823 1184.28 106.836 1184.18 106.783C1184.09 106.715 1184.05 106.635 1184.09 106.595C1184.18 106.501 1183.92 106.165 1183.76 106.165C1183.69 106.165 1183.68 106.232 1183.73 106.326C1183.8 106.42 1183.77 106.433 1183.67 106.38C1183.58 106.313 1183.54 106.232 1183.58 106.192C1183.67 106.098 1183.41 105.762 1183.25 105.762C1183.18 105.762 1183.17 105.843 1183.22 105.923C1183.27 106.031 1183.26 106.058 1183.2 105.99C1183.13 105.923 1183.08 105.802 1183.08 105.722C1183.08 105.655 1183.01 105.561 1182.9 105.52C1182.8 105.48 1182.76 105.52 1182.82 105.614C1182.96 105.843 1182.82 105.789 1182.62 105.534C1182.47 105.332 1182.47 105.319 1182.64 105.426C1182.8 105.534 1182.8 105.52 1182.65 105.319C1182.46 105.064 1182.19 105.01 1182.33 105.252C1182.39 105.346 1182.37 105.359 1182.27 105.306C1182.18 105.238 1182.14 105.158 1182.18 105.118C1182.27 105.024 1182.01 104.688 1181.85 104.688C1181.78 104.688 1181.77 104.768 1181.82 104.849C1181.87 104.956 1181.86 104.983 1181.8 104.916C1181.73 104.849 1181.68 104.728 1181.68 104.648C1181.68 104.554 1181.58 104.486 1181.47 104.486C1181.35 104.486 1181.21 104.433 1181.15 104.366C1181.08 104.299 1181.12 104.285 1181.24 104.352C1181.4 104.46 1181.4 104.446 1181.25 104.245C1181.07 104.003 1180.79 103.923 1180.92 104.151C1181.05 104.366 1180.9 104.299 1180.71 104.057C1180.56 103.855 1180.56 103.842 1180.73 103.949C1180.89 104.057 1180.89 104.043 1180.74 103.842C1180.56 103.6 1180.28 103.52 1180.41 103.748C1180.54 103.963 1180.4 103.896 1180.2 103.654C1180.05 103.453 1180.05 103.439 1180.22 103.547C1180.38 103.654 1180.38 103.641 1180.23 103.439C1180.04 103.184 1179.77 103.13 1179.91 103.372C1179.98 103.466 1179.95 103.479 1179.85 103.426C1179.76 103.359 1179.72 103.278 1179.76 103.238C1179.85 103.144 1179.59 102.808 1179.43 102.808C1179.36 102.808 1179.35 102.889 1179.4 102.969C1179.45 103.077 1179.44 103.103 1179.38 103.036C1179.31 102.969 1179.26 102.848 1179.26 102.768C1179.26 102.674 1179.16 102.607 1179.05 102.607C1178.93 102.607 1178.79 102.553 1178.73 102.486C1178.66 102.419 1178.7 102.405 1178.82 102.472C1178.98 102.58 1178.98 102.566 1178.83 102.365C1178.65 102.123 1178.37 102.043 1178.5 102.271C1178.63 102.486 1178.49 102.419 1178.29 102.177C1178.14 101.976 1178.14 101.962 1178.31 102.07C1178.47 102.177 1178.47 102.164 1178.32 101.962C1178.12 101.694 1177.86 101.653 1178 101.895C1178.05 102.002 1178.04 102.029 1177.98 101.962C1177.91 101.895 1177.86 101.774 1177.86 101.694C1177.86 101.6 1177.76 101.532 1177.64 101.532C1177.52 101.532 1177.42 101.465 1177.4 101.398C1177.39 101.21 1177.15 100.928 1177.01 100.928C1176.94 100.928 1176.93 101.009 1176.98 101.089C1177.03 101.197 1177.02 101.224 1176.96 101.156C1176.89 101.089 1176.84 100.968 1176.84 100.888C1176.84 100.821 1176.77 100.727 1176.66 100.686C1176.56 100.646 1176.52 100.686 1176.58 100.78C1176.72 101.009 1176.58 100.955 1176.38 100.7C1176.23 100.498 1176.23 100.485 1176.4 100.592C1176.56 100.7 1176.56 100.686 1176.41 100.485C1176.23 100.243 1175.95 100.163 1176.08 100.391C1176.21 100.606 1176.07 100.539 1175.87 100.297C1175.72 100.096 1175.72 100.082 1175.89 100.19C1176.05 100.297 1176.05 100.284 1175.9 100.082C1175.7 99.8137 1175.44 99.7734 1175.58 100.015C1175.63 100.123 1175.62 100.149 1175.56 100.082C1175.49 100.015 1175.44 99.8942 1175.44 99.8137C1175.44 99.7197 1175.33 99.6525 1175.19 99.6525C1175.05 99.6525 1174.93 99.5586 1174.93 99.4511C1174.93 99.3437 1174.83 99.2497 1174.72 99.2497C1174.6 99.2497 1174.46 99.196 1174.4 99.1289C1174.33 99.0617 1174.37 99.0483 1174.49 99.1154C1174.65 99.2229 1174.65 99.2094 1174.5 99.008C1174.3 98.7395 1174.04 98.6992 1174.18 98.9409C1174.24 99.0617 1174.21 99.0617 1174.07 98.9275C1173.81 98.7126 1173.77 98.5783 1174.02 98.726C1174.12 98.7932 1174.12 98.7529 1173.99 98.6052C1173.79 98.3366 1173.53 98.2964 1173.67 98.5381C1173.72 98.6455 1173.71 98.6723 1173.65 98.6052C1173.58 98.5381 1173.53 98.4441 1173.53 98.4038C1173.53 98.2292 1173.33 97.9741 1173.2 97.9741C1173.12 97.9741 1173.11 98.0547 1173.16 98.1352C1173.21 98.2427 1173.2 98.2695 1173.14 98.2024C1173.07 98.1352 1173.02 98.0144 1173.02 97.9338C1173.02 97.8398 1172.92 97.7727 1172.81 97.7727C1172.69 97.7727 1172.55 97.719 1172.49 97.6518C1172.42 97.5847 1172.46 97.5713 1172.58 97.6384C1172.74 97.7458 1172.74 97.7324 1172.59 97.531C1172.39 97.2624 1172.13 97.2222 1172.27 97.4638C1172.33 97.5847 1172.3 97.5847 1172.16 97.4504C1171.9 97.2356 1171.86 97.1013 1172.11 97.249C1172.21 97.3161 1172.21 97.2759 1172.08 97.1282C1171.88 96.8596 1171.62 96.8193 1171.76 97.061C1171.81 97.1684 1171.8 97.1953 1171.74 97.1282C1171.67 97.061 1171.62 96.967 1171.62 96.9267C1171.62 96.7522 1171.42 96.4971 1171.29 96.4971C1171.21 96.4971 1171.2 96.5776 1171.25 96.6582C1171.3 96.7656 1171.29 96.7925 1171.23 96.7253C1171.16 96.6582 1171.11 96.5642 1171.11 96.5239C1171.11 96.3494 1170.91 96.0942 1170.78 96.0942C1170.7 96.0942 1170.69 96.1748 1170.74 96.2554C1170.79 96.3628 1170.78 96.3896 1170.72 96.3225C1170.65 96.2554 1170.6 96.1345 1170.6 96.0539C1170.6 95.9868 1170.53 95.8928 1170.42 95.8525C1170.31 95.8123 1170.28 95.8525 1170.36 95.9734C1170.45 96.1345 1170.42 96.1345 1170.25 95.9734C1169.99 95.7585 1169.95 95.6243 1170.19 95.772C1170.3 95.8391 1170.3 95.7988 1170.17 95.6511C1169.97 95.3826 1169.71 95.3423 1169.85 95.584C1169.9 95.6914 1169.89 95.7183 1169.83 95.6511C1169.76 95.584 1169.71 95.49 1169.71 95.4497C1169.71 95.2751 1169.51 95.02 1169.38 95.02C1169.3 95.02 1169.29 95.1006 1169.34 95.1812C1169.39 95.2886 1169.38 95.3154 1169.32 95.2483C1169.25 95.1812 1169.2 95.0603 1169.2 94.9797C1169.2 94.8857 1169.09 94.8186 1168.95 94.8186C1168.81 94.8186 1168.69 94.7246 1168.69 94.6172C1168.69 94.5098 1168.59 94.4158 1168.48 94.4158C1168.36 94.4158 1168.22 94.3621 1168.16 94.2949C1168.09 94.2278 1168.13 94.2144 1168.25 94.2815C1168.41 94.3889 1168.41 94.3755 1168.26 94.1741C1168.06 93.9055 1167.8 93.8652 1167.94 94.1069C1167.99 94.2144 1167.98 94.2412 1167.92 94.1741C1167.85 94.1069 1167.8 94.013 1167.8 93.9727C1167.8 93.7981 1167.6 93.543 1167.47 93.543C1167.39 93.543 1167.38 93.6236 1167.43 93.7041C1167.48 93.8115 1167.47 93.8384 1167.41 93.7713C1167.34 93.7041 1167.29 93.6101 1167.29 93.5698C1167.29 93.3953 1167.09 93.1402 1166.96 93.1402C1166.88 93.1402 1166.87 93.2207 1166.92 93.3013C1166.97 93.4087 1166.96 93.4356 1166.9 93.3684C1166.83 93.3013 1166.78 93.1804 1166.78 93.0999C1166.78 93.0059 1166.68 92.9387 1166.57 92.9387C1166.45 92.9387 1166.31 92.885 1166.25 92.8179C1166.18 92.7508 1166.22 92.7373 1166.34 92.8045C1166.5 92.9119 1166.5 92.8985 1166.35 92.697C1166.15 92.4285 1165.89 92.3882 1166.03 92.6299C1166.09 92.7508 1166.06 92.7508 1165.92 92.6165C1165.66 92.4016 1165.62 92.2674 1165.87 92.4151C1165.97 92.4822 1165.97 92.4419 1165.84 92.2942C1165.64 92.0257 1165.38 91.9854 1165.52 92.2271C1165.57 92.3345 1165.56 92.3614 1165.5 92.2942C1165.43 92.2271 1165.38 92.1062 1165.38 92.0257C1165.38 91.9317 1165.27 91.8645 1165.13 91.8645C1164.99 91.8645 1164.87 91.7705 1164.87 91.6631C1164.87 91.5557 1164.77 91.4617 1164.66 91.4617C1164.54 91.4617 1164.4 91.408 1164.34 91.3409C1164.27 91.2737 1164.31 91.2603 1164.43 91.3274C1164.59 91.4349 1164.59 91.4214 1164.44 91.22C1164.24 90.9515 1163.98 90.9112 1164.12 91.1529C1164.18 91.2737 1164.15 91.2737 1164.01 91.1394C1163.75 90.9246 1163.71 90.7903 1163.95 90.938C1164.06 91.0052 1164.06 90.9649 1163.93 90.8172C1163.73 90.5486 1163.47 90.5083 1163.61 90.75C1163.66 90.8575 1163.65 90.8843 1163.59 90.8172C1163.52 90.75 1163.47 90.656 1163.47 90.6158C1163.47 90.4412 1163.27 90.1861 1163.14 90.1861C1163.06 90.1861 1163.05 90.2666 1163.1 90.3472C1163.15 90.4546 1163.14 90.4815 1163.08 90.4144C1163.01 90.3472 1162.96 90.2532 1162.96 90.2129C1162.96 90.0384 1162.76 89.7833 1162.63 89.7833C1162.55 89.7833 1162.54 89.8638 1162.59 89.9444C1162.64 90.0518 1162.63 90.0787 1162.57 90.0115C1162.5 89.9444 1162.45 89.8235 1162.45 89.743C1162.45 89.649 1162.35 89.5818 1162.24 89.5818C1162.12 89.5818 1161.98 89.5281 1161.92 89.461C1161.87 89.3939 1161.88 89.3804 1161.98 89.4341C1162.3 89.6356 1162.12 89.3804 1161.71 89.0984L1161.31 88.7896L1161.56 89.1119L1161.82 89.4207L1161.47 89.179C1161.28 89.0582 1161.15 88.8836 1161.2 88.803C1161.24 88.7359 1161.22 88.709 1161.15 88.7493C1161.08 88.803 1160.67 88.5748 1160.24 88.2391L1159.46 87.6348L1159.45 88.2794C1159.43 88.6285 1159.41 88.803 1159.37 88.6688C1159.22 88.0377 1158.71 88.897 1158.61 89.9712C1158.57 90.3472 1158.72 92.3748 1158.94 94.4829C1159.15 96.5911 1159.5 100.015 1159.71 102.096C1160.59 110.744 1160.87 113.604 1161.24 117.135C1162.39 128.522 1162.34 128.106 1162.72 128.911C1163.01 129.502 1163.43 129.972 1163.53 129.798C1163.59 129.717 1163.69 130.147 1163.76 130.751C1163.85 131.355 1163.94 131.879 1163.98 131.919C1164.01 131.946 1164.71 131.906 1165.52 131.812C1166.34 131.718 1167.38 131.677 1167.85 131.731C1169.85 131.919 1172.02 132.899 1173.3 134.188C1173.71 134.591 1173.94 134.846 1173.81 134.752C1173.68 134.658 1173.77 134.887 1174.03 135.303C1174.64 136.283 1175.19 137.948 1175.38 139.412C1175.57 140.916 1175.4 142.473 1174.88 144.031C1174.36 145.588 1173.79 146.501 1172.51 147.858C1171.21 149.241 1170.04 149.979 1168.3 150.503C1167 150.892 1164.67 150.933 1163.41 150.57C1162.52 150.315 1160.96 149.59 1160.31 149.106L1159.91 148.811L1160.22 149.214L1160.54 149.603L1160.19 149.268C1159.98 149.08 1159.56 148.569 1159.24 148.126C1158.71 147.388 1158.45 146.877 1157.51 144.675L1157.18 143.897L1156.73 144.098C1156.21 144.326 1156.11 144.34 1156.2 144.179C1156.25 144.111 1156.01 143.923 1155.69 143.762C1155.22 143.521 1154.96 143.467 1154.37 143.534C1153.59 143.601 1153.27 143.749 1139.02 150.342C1135.8 151.832 1131.12 153.994 1128.64 155.135C1122.54 157.942 1121.38 158.533 1120.9 159.137C1120.4 159.714 1120.34 160.359 1120.76 160.52C1120.99 160.614 1120.91 160.681 1120.24 161.003C1119.8 161.205 1119.47 161.393 1119.5 161.42C1119.54 161.446 1153.96 177.533 1156.44 178.674C1157.13 178.983 1157.7 179.225 1157.73 179.198C1157.75 179.171 1158.14 178.392 1158.58 177.466C1159.31 175.948 1159.5 175.666 1160.59 174.498C1161.64 173.397 1161.98 173.128 1163.03 172.605C1164.41 171.893 1165.52 171.571 1167.01 171.463C1169.23 171.316 1172.07 172.336 1173.6 173.84C1173.98 174.216 1174.21 174.485 1174.1 174.431C1173.95 174.35 1173.95 174.377 1174.12 174.592C1174.51 175.075 1175.26 176.821 1175.52 177.855C1175.86 179.225 1175.89 181.346 1175.57 182.702C1174.88 185.67 1173.01 188.167 1170.5 189.47C1169.11 190.195 1168.28 190.437 1166.55 190.625C1165.85 190.692 1165.06 190.826 1164.8 190.893C1163.87 191.162 1163.22 192.021 1162.97 193.31C1162.89 193.82 1160.06 220.501 1159.4 227.255C1159.15 229.592 1159.23 230.384 1159.73 230.961C1160.03 231.31 1160.11 231.351 1160.24 231.176C1160.38 230.975 1160.33 232.492 1160.13 234.05C1160.07 234.587 1160.08 234.694 1160.24 234.587C1160.39 234.493 1191.19 210.806 1193.17 209.262L1193.83 208.752L1192.95 207.315C1191.44 204.871 1190.95 203.126 1191.08 200.507C1191.12 199.447 1191.23 198.721 1191.46 197.983C1193.22 192.236 1199.24 189.282 1204.5 191.578C1205.52 192.035 1206.95 193.042 1207.53 193.726C1207.83 194.062 1207.84 194.116 1207.61 193.914L1207.29 193.646L1207.57 194.076C1208.54 195.539 1209.13 197.688 1209.13 199.742C1209.11 201.608 1208.9 202.589 1207.98 204.724C1207.67 205.422 1207.41 206.268 1207.37 206.603C1207.3 207.275 1207.62 208.295 1207.85 208.148C1208.03 208.027 1208 208.175 1207.79 208.524C1207.61 208.819 1207.62 208.859 1208.14 209.235C1208.44 209.464 1214.87 214.445 1222.43 220.313C1235.38 230.357 1240.03 233.942 1240.43 234.184C1240.57 234.278 1240.59 234.157 1240.53 233.58C1240.48 233.177 1239.5 223.522 1238.35 212.109C1237.19 200.695 1236.22 191.162 1236.19 190.92L1236.11 190.463L1235.28 190.517C1234.71 190.544 1234.47 190.504 1234.47 190.396C1234.47 190.222 1233.78 189.644 1233.39 189.497C1233.24 189.443 1232.44 189.309 1231.6 189.201C1229.48 188.919 1228.2 188.49 1226.85 187.59C1226.38 187.268 1226.19 187.187 1226.32 187.362C1226.42 187.509 1226.27 187.348 1225.96 187.013C1224.37 185.227 1223.34 182.044 1223.57 179.641C1223.94 175.827 1225.9 172.726 1228.93 171.141C1230.55 170.309 1231.77 170.04 1233.69 170.107C1235.55 170.188 1236.79 170.537 1238.15 171.383C1239.03 171.933 1240.11 172.873 1240.02 173.008C1239.94 173.155 1241.41 175.116 1241.6 175.116C1241.73 175.116 1242.81 177.13 1243.04 177.788C1243.09 177.962 1242.94 178.03 1251.34 174.136C1255.34 172.283 1263.3 168.603 1269.04 165.945C1281.37 160.238 1280.19 160.815 1280.19 160.614C1280.19 160.52 1279.77 160.251 1279.27 160.01C1277.22 159.016 1276.31 158.533 1276.48 158.533C1276.8 158.533 1276.15 157.915 1275.37 157.485C1274.96 157.257 1273.16 156.384 1271.33 155.538C1269.51 154.692 1265.22 152.678 1261.78 151.08C1243.32 142.446 1243.61 142.581 1242.94 142.406C1242.11 142.191 1241.31 142.312 1240.76 142.755C1240.52 142.957 1239.92 143.668 1239.45 144.353C1237.69 146.837 1235.98 148.099 1233.45 148.798C1232.29 149.12 1230.1 149.093 1228.85 148.744C1227.88 148.475 1226.22 147.697 1225.76 147.267C1225.55 147.092 1225.53 147.092 1225.6 147.253C1225.66 147.361 1225.41 147.133 1225.06 146.73C1224.7 146.327 1224.19 145.548 1223.91 144.984C1220.9 138.888 1224.22 131.557 1230.65 130.12C1231.41 129.945 1232 129.918 1233.55 129.999C1234.61 130.039 1235.49 130.039 1235.49 129.986C1235.49 129.932 1235.77 127.193 1236.12 123.903C1237.14 114.262 1239.94 87.514 1239.94 87.4334C1239.94 87.2857 1239.71 87.4066 1238.99 87.984ZM1188.51 110.019C1188.67 110.234 1188.66 110.247 1188.47 110.072C1188.34 109.978 1188.24 109.871 1188.24 109.844C1188.24 109.737 1188.34 109.804 1188.51 110.019ZM1202.57 149.469C1204.55 150.02 1206.23 150.973 1207.53 152.289C1207.89 152.638 1208.06 152.839 1207.92 152.745C1207.69 152.571 1207.7 152.598 1207.95 153.027C1208.42 153.793 1209.07 155.189 1209.3 155.914C1209.6 156.854 1209.89 158.721 1209.89 159.607C1209.89 160.493 1209.6 162.36 1209.3 163.299C1208.14 167.032 1205.13 169.986 1201.42 171.034C1199.98 171.437 1197.38 171.437 1195.94 171.034C1194.94 170.752 1193.31 169.986 1192.44 169.396C1192.05 169.114 1192.01 169.114 1192.18 169.342C1192.26 169.49 1192.07 169.302 1191.74 168.939C1186.8 163.501 1188.25 154.236 1194.62 150.624C1195.79 149.952 1196.4 149.724 1197.79 149.388C1199.08 149.08 1201.33 149.12 1202.57 149.469Z" fill="#50AF31"/>
<path d="M1238.99 87.984C1238.02 88.7493 1237.77 88.9105 1237.84 88.6688C1237.97 88.3465 1237.42 87.9034 1236.9 87.9034C1236.21 87.9034 1235.27 88.4539 1233.14 90.1055C1232.15 90.8709 1226.34 95.3423 1220.23 100.042C1214.12 104.742 1208.78 108.85 1208.39 109.159C1206.34 110.744 1205.89 111.335 1205.89 112.422C1205.88 112.932 1205.94 113.201 1206.13 113.429C1206.27 113.59 1206.31 113.684 1206.23 113.631C1205.99 113.496 1206.02 113.564 1206.58 114.866C1207.37 116.706 1207.53 117.525 1207.53 119.458C1207.53 121.499 1207.3 122.506 1206.48 124.225C1206.01 125.192 1205.66 125.675 1204.73 126.642C1204.08 127.327 1203.23 128.079 1202.76 128.361C1199.94 130.08 1196.25 130.147 1193.36 128.522C1192.9 128.267 1192.48 128.092 1192.43 128.133C1192.38 128.159 1192.09 127.891 1191.78 127.515C1189.62 124.87 1188.88 121.016 1189.91 117.699C1190.28 116.531 1190.55 115.981 1191.5 114.53C1191.95 113.846 1192.32 113.255 1192.32 113.214C1192.32 113.188 1191.51 112.516 1190.53 111.737C1188.94 110.462 1188.43 109.992 1188.92 110.274C1188.99 110.314 1188.9 110.207 1188.69 110.005C1188.48 109.817 1188.24 109.696 1188.15 109.723C1188.06 109.75 1187.96 109.71 1187.91 109.629C1187.85 109.535 1187.88 109.522 1188 109.589C1188.15 109.696 1188.15 109.67 1188 109.482C1187.91 109.347 1187.73 109.267 1187.62 109.28C1187.51 109.307 1187.41 109.226 1187.41 109.119C1187.41 109.012 1187.31 108.918 1187.2 108.918C1187.08 108.918 1186.94 108.864 1186.88 108.797C1186.81 108.73 1186.85 108.716 1186.97 108.783C1187.13 108.891 1187.13 108.877 1186.98 108.676C1186.8 108.434 1186.52 108.354 1186.65 108.582C1186.78 108.797 1186.64 108.73 1186.44 108.488C1186.29 108.287 1186.29 108.273 1186.46 108.38C1186.62 108.488 1186.62 108.474 1186.47 108.273C1186.28 108.018 1186.01 107.964 1186.15 108.206C1186.22 108.3 1186.19 108.313 1186.09 108.26C1186 108.193 1185.96 108.112 1186 108.072C1186.09 107.978 1185.83 107.642 1185.67 107.642C1185.6 107.642 1185.59 107.723 1185.64 107.803C1185.69 107.911 1185.68 107.937 1185.62 107.87C1185.55 107.803 1185.5 107.682 1185.5 107.602C1185.5 107.508 1185.4 107.441 1185.29 107.441C1185.17 107.441 1185.03 107.387 1184.97 107.32C1184.9 107.253 1184.94 107.239 1185.06 107.306C1185.22 107.414 1185.22 107.4 1185.07 107.199C1184.89 106.957 1184.61 106.877 1184.74 107.105C1184.87 107.32 1184.73 107.253 1184.53 107.011C1184.38 106.809 1184.38 106.796 1184.55 106.903C1184.71 107.011 1184.71 106.997 1184.56 106.796C1184.37 106.541 1184.1 106.487 1184.24 106.729C1184.31 106.823 1184.28 106.836 1184.18 106.783C1184.09 106.715 1184.05 106.635 1184.09 106.595C1184.18 106.501 1183.92 106.165 1183.76 106.165C1183.69 106.165 1183.68 106.232 1183.73 106.326C1183.8 106.42 1183.77 106.433 1183.67 106.38C1183.58 106.313 1183.54 106.232 1183.58 106.192C1183.67 106.098 1183.41 105.762 1183.25 105.762C1183.18 105.762 1183.17 105.843 1183.22 105.923C1183.27 106.031 1183.26 106.058 1183.2 105.99C1183.13 105.923 1183.08 105.802 1183.08 105.722C1183.08 105.655 1183.01 105.561 1182.9 105.52C1182.8 105.48 1182.76 105.52 1182.82 105.614C1182.96 105.843 1182.82 105.789 1182.62 105.534C1182.47 105.332 1182.47 105.319 1182.64 105.426C1182.8 105.534 1182.8 105.52 1182.65 105.319C1182.46 105.064 1182.19 105.01 1182.33 105.252C1182.39 105.346 1182.37 105.359 1182.27 105.306C1182.18 105.238 1182.14 105.158 1182.18 105.118C1182.27 105.024 1182.01 104.688 1181.85 104.688C1181.78 104.688 1181.77 104.768 1181.82 104.849C1181.87 104.956 1181.86 104.983 1181.8 104.916C1181.73 104.849 1181.68 104.728 1181.68 104.648C1181.68 104.554 1181.58 104.486 1181.47 104.486C1181.35 104.486 1181.21 104.433 1181.15 104.366C1181.08 104.299 1181.12 104.285 1181.24 104.352C1181.4 104.46 1181.4 104.446 1181.25 104.245C1181.07 104.003 1180.79 103.923 1180.92 104.151C1181.05 104.366 1180.9 104.299 1180.71 104.057C1180.56 103.855 1180.56 103.842 1180.73 103.949C1180.89 104.057 1180.89 104.043 1180.74 103.842C1180.56 103.6 1180.28 103.52 1180.41 103.748C1180.54 103.963 1180.4 103.896 1180.2 103.654C1180.05 103.453 1180.05 103.439 1180.22 103.547C1180.38 103.654 1180.38 103.641 1180.23 103.439C1180.04 103.184 1179.77 103.13 1179.91 103.372C1179.98 103.466 1179.95 103.479 1179.85 103.426C1179.76 103.359 1179.72 103.278 1179.76 103.238C1179.85 103.144 1179.59 102.808 1179.43 102.808C1179.36 102.808 1179.35 102.889 1179.4 102.969C1179.45 103.077 1179.44 103.103 1179.38 103.036C1179.31 102.969 1179.26 102.848 1179.26 102.768C1179.26 102.674 1179.16 102.607 1179.05 102.607C1178.93 102.607 1178.79 102.553 1178.73 102.486C1178.66 102.419 1178.7 102.405 1178.82 102.472C1178.98 102.58 1178.98 102.566 1178.83 102.365C1178.65 102.123 1178.37 102.043 1178.5 102.271C1178.63 102.486 1178.49 102.419 1178.29 102.177C1178.14 101.976 1178.14 101.962 1178.31 102.07C1178.47 102.177 1178.47 102.164 1178.32 101.962C1178.12 101.694 1177.86 101.653 1178 101.895C1178.05 102.002 1178.04 102.029 1177.98 101.962C1177.91 101.895 1177.86 101.774 1177.86 101.694C1177.86 101.6 1177.76 101.532 1177.64 101.532C1177.52 101.532 1177.42 101.465 1177.4 101.398C1177.39 101.21 1177.15 100.928 1177.01 100.928C1176.94 100.928 1176.93 101.009 1176.98 101.089C1177.03 101.197 1177.02 101.224 1176.96 101.156C1176.89 101.089 1176.84 100.968 1176.84 100.888C1176.84 100.821 1176.77 100.727 1176.66 100.686C1176.56 100.646 1176.52 100.686 1176.58 100.78C1176.72 101.009 1176.58 100.955 1176.38 100.7C1176.23 100.498 1176.23 100.485 1176.4 100.592C1176.56 100.7 1176.56 100.686 1176.41 100.485C1176.23 100.243 1175.95 100.163 1176.08 100.391C1176.21 100.606 1176.07 100.539 1175.87 100.297C1175.72 100.096 1175.72 100.082 1175.89 100.19C1176.05 100.297 1176.05 100.284 1175.9 100.082C1175.7 99.8137 1175.44 99.7734 1175.58 100.015C1175.63 100.123 1175.62 100.149 1175.56 100.082C1175.49 100.015 1175.44 99.8942 1175.44 99.8137C1175.44 99.7197 1175.33 99.6525 1175.19 99.6525C1175.05 99.6525 1174.93 99.5586 1174.93 99.4511C1174.93 99.3437 1174.83 99.2497 1174.72 99.2497C1174.6 99.2497 1174.46 99.196 1174.4 99.1289C1174.33 99.0617 1174.37 99.0483 1174.49 99.1154C1174.65 99.2229 1174.65 99.2094 1174.5 99.008C1174.3 98.7395 1174.04 98.6992 1174.18 98.9409C1174.24 99.0617 1174.21 99.0617 1174.07 98.9275C1173.81 98.7126 1173.77 98.5783 1174.02 98.726C1174.12 98.7932 1174.12 98.7529 1173.99 98.6052C1173.79 98.3366 1173.53 98.2964 1173.67 98.5381C1173.72 98.6455 1173.71 98.6723 1173.65 98.6052C1173.58 98.5381 1173.53 98.4441 1173.53 98.4038C1173.53 98.2292 1173.33 97.9741 1173.2 97.9741C1173.12 97.9741 1173.11 98.0547 1173.16 98.1352C1173.21 98.2427 1173.2 98.2695 1173.14 98.2024C1173.07 98.1352 1173.02 98.0144 1173.02 97.9338C1173.02 97.8398 1172.92 97.7727 1172.81 97.7727C1172.69 97.7727 1172.55 97.719 1172.49 97.6518C1172.42 97.5847 1172.46 97.5713 1172.58 97.6384C1172.74 97.7458 1172.74 97.7324 1172.59 97.531C1172.39 97.2624 1172.13 97.2222 1172.27 97.4638C1172.33 97.5847 1172.3 97.5847 1172.16 97.4504C1171.9 97.2356 1171.86 97.1013 1172.11 97.249C1172.21 97.3161 1172.21 97.2759 1172.08 97.1282C1171.88 96.8596 1171.62 96.8193 1171.76 97.061C1171.81 97.1684 1171.8 97.1953 1171.74 97.1282C1171.67 97.061 1171.62 96.967 1171.62 96.9267C1171.62 96.7522 1171.42 96.4971 1171.29 96.4971C1171.21 96.4971 1171.2 96.5776 1171.25 96.6582C1171.3 96.7656 1171.29 96.7925 1171.23 96.7253C1171.16 96.6582 1171.11 96.5642 1171.11 96.5239C1171.11 96.3494 1170.91 96.0942 1170.78 96.0942C1170.7 96.0942 1170.69 96.1748 1170.74 96.2554C1170.79 96.3628 1170.78 96.3896 1170.72 96.3225C1170.65 96.2554 1170.6 96.1345 1170.6 96.0539C1170.6 95.9868 1170.53 95.8928 1170.42 95.8525C1170.31 95.8123 1170.28 95.8525 1170.36 95.9734C1170.45 96.1345 1170.42 96.1345 1170.25 95.9734C1169.99 95.7585 1169.95 95.6243 1170.19 95.772C1170.3 95.8391 1170.3 95.7988 1170.17 95.6511C1169.97 95.3826 1169.71 95.3423 1169.85 95.584C1169.9 95.6914 1169.89 95.7183 1169.83 95.6511C1169.76 95.584 1169.71 95.49 1169.71 95.4497C1169.71 95.2751 1169.51 95.02 1169.38 95.02C1169.3 95.02 1169.29 95.1006 1169.34 95.1812C1169.39 95.2886 1169.38 95.3154 1169.32 95.2483C1169.25 95.1812 1169.2 95.0603 1169.2 94.9797C1169.2 94.8857 1169.09 94.8186 1168.95 94.8186C1168.81 94.8186 1168.69 94.7246 1168.69 94.6172C1168.69 94.5098 1168.59 94.4158 1168.48 94.4158C1168.36 94.4158 1168.22 94.3621 1168.16 94.2949C1168.09 94.2278 1168.13 94.2144 1168.25 94.2815C1168.41 94.3889 1168.41 94.3755 1168.26 94.1741C1168.06 93.9055 1167.8 93.8652 1167.94 94.1069C1167.99 94.2144 1167.98 94.2412 1167.92 94.1741C1167.85 94.1069 1167.8 94.013 1167.8 93.9727C1167.8 93.7981 1167.6 93.543 1167.47 93.543C1167.39 93.543 1167.38 93.6236 1167.43 93.7041C1167.48 93.8115 1167.47 93.8384 1167.41 93.7713C1167.34 93.7041 1167.29 93.6101 1167.29 93.5698C1167.29 93.3953 1167.09 93.1402 1166.96 93.1402C1166.88 93.1402 1166.87 93.2207 1166.92 93.3013C1166.97 93.4087 1166.96 93.4356 1166.9 93.3684C1166.83 93.3013 1166.78 93.1804 1166.78 93.0999C1166.78 93.0059 1166.68 92.9387 1166.57 92.9387C1166.45 92.9387 1166.31 92.885 1166.25 92.8179C1166.18 92.7508 1166.22 92.7373 1166.34 92.8045C1166.5 92.9119 1166.5 92.8985 1166.35 92.697C1166.15 92.4285 1165.89 92.3882 1166.03 92.6299C1166.09 92.7508 1166.06 92.7508 1165.92 92.6165C1165.66 92.4016 1165.62 92.2674 1165.87 92.4151C1165.97 92.4822 1165.97 92.4419 1165.84 92.2942C1165.64 92.0257 1165.38 91.9854 1165.52 92.2271C1165.57 92.3345 1165.56 92.3614 1165.5 92.2942C1165.43 92.2271 1165.38 92.1062 1165.38 92.0257C1165.38 91.9317 1165.27 91.8645 1165.13 91.8645C1164.99 91.8645 1164.87 91.7705 1164.87 91.6631C1164.87 91.5557 1164.77 91.4617 1164.66 91.4617C1164.54 91.4617 1164.4 91.408 1164.34 91.3409C1164.27 91.2737 1164.31 91.2603 1164.43 91.3274C1164.59 91.4349 1164.59 91.4214 1164.44 91.22C1164.24 90.9515 1163.98 90.9112 1164.12 91.1529C1164.18 91.2737 1164.15 91.2737 1164.01 91.1394C1163.75 90.9246 1163.71 90.7903 1163.95 90.938C1164.06 91.0052 1164.06 90.9649 1163.93 90.8172C1163.73 90.5486 1163.47 90.5083 1163.61 90.75C1163.66 90.8575 1163.65 90.8843 1163.59 90.8172C1163.52 90.75 1163.47 90.656 1163.47 90.6158C1163.47 90.4412 1163.27 90.1861 1163.14 90.1861C1163.06 90.1861 1163.05 90.2666 1163.1 90.3472C1163.15 90.4546 1163.14 90.4815 1163.08 90.4144C1163.01 90.3472 1162.96 90.2532 1162.96 90.2129C1162.96 90.0384 1162.76 89.7833 1162.63 89.7833C1162.55 89.7833 1162.54 89.8638 1162.59 89.9444C1162.64 90.0518 1162.63 90.0787 1162.57 90.0115C1162.5 89.9444 1162.45 89.8235 1162.45 89.743C1162.45 89.649 1162.35 89.5818 1162.24 89.5818C1162.12 89.5818 1161.98 89.5281 1161.92 89.461C1161.87 89.3939 1161.88 89.3804 1161.98 89.4341C1162.3 89.6356 1162.12 89.3804 1161.71 89.0984L1161.31 88.7896L1161.56 89.1119L1161.82 89.4207L1161.47 89.179C1161.28 89.0582 1161.15 88.8836 1161.2 88.803C1161.24 88.7359 1161.22 88.709 1161.15 88.7493C1161.08 88.803 1160.67 88.5748 1160.24 88.2391L1159.46 87.6348L1159.45 88.2794C1159.43 88.6285 1159.41 88.803 1159.37 88.6688C1159.22 88.0377 1158.71 88.897 1158.61 89.9712C1158.57 90.3472 1158.72 92.3748 1158.94 94.4829C1159.15 96.5911 1159.5 100.015 1159.71 102.096C1160.59 110.744 1160.87 113.604 1161.24 117.135C1162.39 128.522 1162.34 128.106 1162.72 128.911C1163.01 129.502 1163.43 129.972 1163.53 129.798C1163.59 129.717 1163.69 130.147 1163.76 130.751C1163.85 131.355 1163.94 131.879 1163.98 131.919C1164.01 131.946 1164.71 131.906 1165.52 131.812C1166.34 131.718 1167.38 131.677 1167.85 131.731C1169.85 131.919 1172.02 132.899 1173.3 134.188C1173.71 134.591 1173.94 134.846 1173.81 134.752C1173.68 134.658 1173.77 134.887 1174.03 135.303C1174.64 136.283 1175.19 137.948 1175.38 139.412C1175.57 140.916 1175.4 142.473 1174.88 144.031C1174.36 145.588 1173.79 146.501 1172.51 147.858C1171.21 149.241 1170.04 149.979 1168.3 150.503C1167 150.892 1164.67 150.933 1163.41 150.57C1162.52 150.315 1160.96 149.59 1160.31 149.106L1159.91 148.811L1160.22 149.214L1160.54 149.603L1160.19 149.268C1159.98 149.08 1159.56 148.569 1159.24 148.126C1158.71 147.388 1158.45 146.877 1157.51 144.675L1157.18 143.897L1156.73 144.098C1156.21 144.326 1156.11 144.34 1156.2 144.179C1156.25 144.111 1156.01 143.923 1155.69 143.762C1155.22 143.521 1154.96 143.467 1154.37 143.534C1153.59 143.601 1153.27 143.749 1139.02 150.342C1135.8 151.832 1131.12 153.994 1128.64 155.135C1122.54 157.942 1121.38 158.533 1120.9 159.137C1120.4 159.714 1120.34 160.359 1120.76 160.52C1120.99 160.614 1120.91 160.681 1120.24 161.003C1119.8 161.205 1119.47 161.393 1119.5 161.42C1119.54 161.446 1153.96 177.533 1156.44 178.674C1157.13 178.983 1157.7 179.225 1157.73 179.198C1157.75 179.171 1158.14 178.392 1158.58 177.466C1159.31 175.948 1159.5 175.666 1160.59 174.498C1161.64 173.397 1161.98 173.128 1163.03 172.605C1164.41 171.893 1165.52 171.571 1167.01 171.463C1169.23 171.316 1172.07 172.336 1173.6 173.84C1173.98 174.216 1174.21 174.485 1174.1 174.431C1173.95 174.35 1173.95 174.377 1174.12 174.592C1174.51 175.075 1175.26 176.821 1175.52 177.855C1175.86 179.225 1175.89 181.346 1175.57 182.702C1174.88 185.67 1173.01 188.167 1170.5 189.47C1169.11 190.195 1168.28 190.437 1166.55 190.625C1165.85 190.692 1165.06 190.826 1164.8 190.893C1163.87 191.162 1163.22 192.021 1162.97 193.31C1162.89 193.82 1160.06 220.501 1159.4 227.255C1159.15 229.592 1159.23 230.384 1159.73 230.961C1160.03 231.31 1160.11 231.351 1160.24 231.176C1160.38 230.975 1160.33 232.492 1160.13 234.05C1160.07 234.587 1160.08 234.694 1160.24 234.587C1160.39 234.493 1191.19 210.806 1193.17 209.262L1193.83 208.752L1192.95 207.315C1191.44 204.871 1190.95 203.126 1191.08 200.507C1191.12 199.447 1191.23 198.721 1191.46 197.983C1193.22 192.236 1199.24 189.282 1204.5 191.578C1205.52 192.035 1206.95 193.042 1207.53 193.726C1207.83 194.062 1207.84 194.116 1207.61 193.914L1207.29 193.646L1207.57 194.076C1208.54 195.539 1209.13 197.688 1209.13 199.742C1209.11 201.608 1208.9 202.589 1207.98 204.724C1207.67 205.422 1207.41 206.268 1207.37 206.603C1207.3 207.275 1207.62 208.295 1207.85 208.148C1208.03 208.027 1208 208.175 1207.79 208.524C1207.61 208.819 1207.62 208.859 1208.14 209.235C1208.44 209.464 1214.87 214.445 1222.43 220.313C1235.38 230.357 1240.03 233.942 1240.43 234.184C1240.57 234.278 1240.59 234.157 1240.53 233.58C1240.48 233.177 1239.5 223.522 1238.35 212.109C1237.19 200.695 1236.22 191.162 1236.19 190.92L1236.11 190.463L1235.28 190.517C1234.71 190.544 1234.47 190.504 1234.47 190.396C1234.47 190.222 1233.78 189.644 1233.39 189.497C1233.24 189.443 1232.44 189.309 1231.6 189.201C1229.48 188.919 1228.2 188.49 1226.85 187.59C1226.38 187.268 1226.19 187.187 1226.32 187.362C1226.42 187.509 1226.27 187.348 1225.96 187.013C1224.37 185.227 1223.34 182.044 1223.57 179.641C1223.94 175.827 1225.9 172.726 1228.93 171.141C1230.55 170.309 1231.77 170.04 1233.69 170.107C1235.55 170.188 1236.79 170.537 1238.15 171.383C1239.03 171.933 1240.11 172.873 1240.02 173.008C1239.94 173.155 1241.41 175.116 1241.6 175.116C1241.73 175.116 1242.81 177.13 1243.04 177.788C1243.09 177.962 1242.94 178.03 1251.34 174.136C1255.34 172.283 1263.3 168.603 1269.04 165.945C1281.37 160.238 1280.19 160.815 1280.19 160.614C1280.19 160.52 1279.77 160.251 1279.27 160.01C1277.22 159.016 1276.31 158.533 1276.48 158.533C1276.8 158.533 1276.15 157.915 1275.37 157.485C1274.96 157.257 1273.16 156.384 1271.33 155.538C1269.51 154.692 1265.22 152.678 1261.78 151.08C1243.32 142.446 1243.61 142.581 1242.94 142.406C1242.11 142.191 1241.31 142.312 1240.76 142.755C1240.52 142.957 1239.92 143.668 1239.45 144.353C1237.69 146.837 1235.98 148.099 1233.45 148.798C1232.29 149.12 1230.1 149.093 1228.85 148.744C1227.88 148.475 1226.22 147.697 1225.76 147.267C1225.55 147.092 1225.53 147.092 1225.6 147.253C1225.66 147.361 1225.41 147.133 1225.06 146.73C1224.7 146.327 1224.19 145.548 1223.91 144.984C1220.9 138.888 1224.22 131.557 1230.65 130.12C1231.41 129.945 1232 129.918 1233.55 129.999C1234.61 130.039 1235.49 130.039 1235.49 129.986C1235.49 129.932 1235.77 127.193 1236.12 123.903C1237.14 114.262 1239.94 87.514 1239.94 87.4334C1239.94 87.2857 1239.71 87.4066 1238.99 87.984ZM1188.51 110.019C1188.67 110.234 1188.66 110.247 1188.47 110.072C1188.34 109.978 1188.24 109.871 1188.24 109.844C1188.24 109.737 1188.34 109.804 1188.51 110.019ZM1202.57 149.469C1204.55 150.02 1206.23 150.973 1207.53 152.289C1207.89 152.638 1208.06 152.839 1207.92 152.745C1207.69 152.571 1207.7 152.598 1207.95 153.027C1208.42 153.793 1209.07 155.189 1209.3 155.914C1209.6 156.854 1209.89 158.721 1209.89 159.607C1209.89 160.493 1209.6 162.36 1209.3 163.299C1208.14 167.032 1205.13 169.986 1201.42 171.034C1199.98 171.437 1197.38 171.437 1195.94 171.034C1194.94 170.752 1193.31 169.986 1192.44 169.396C1192.05 169.114 1192.01 169.114 1192.18 169.342C1192.26 169.49 1192.07 169.302 1191.74 168.939C1186.8 163.501 1188.25 154.236 1194.62 150.624C1195.79 149.952 1196.4 149.724 1197.79 149.388C1199.08 149.08 1201.33 149.12 1202.57 149.469Z" stroke="black" stroke-width="11"/>
<path d="M1238.99 87.984C1238.02 88.7493 1237.77 88.9105 1237.84 88.6688C1237.97 88.3465 1237.42 87.9034 1236.9 87.9034C1236.21 87.9034 1235.27 88.4539 1233.14 90.1055C1232.15 90.8709 1226.34 95.3423 1220.23 100.042C1214.12 104.742 1208.78 108.85 1208.39 109.159C1206.34 110.744 1205.89 111.335 1205.89 112.422C1205.88 112.932 1205.94 113.201 1206.13 113.429C1206.27 113.59 1206.31 113.684 1206.23 113.631C1205.99 113.496 1206.02 113.564 1206.58 114.866C1207.37 116.706 1207.53 117.525 1207.53 119.458C1207.53 121.499 1207.3 122.506 1206.48 124.225C1206.01 125.192 1205.66 125.675 1204.73 126.642C1204.08 127.327 1203.23 128.079 1202.76 128.361C1199.94 130.08 1196.25 130.147 1193.36 128.522C1192.9 128.267 1192.48 128.092 1192.43 128.133C1192.38 128.159 1192.09 127.891 1191.78 127.515C1189.62 124.87 1188.88 121.016 1189.91 117.699C1190.28 116.531 1190.55 115.981 1191.5 114.53C1191.95 113.846 1192.32 113.255 1192.32 113.214C1192.32 113.188 1191.51 112.516 1190.53 111.737C1188.94 110.462 1188.43 109.992 1188.92 110.274C1188.99 110.314 1188.9 110.207 1188.69 110.005C1188.48 109.817 1188.24 109.696 1188.15 109.723C1188.06 109.75 1187.96 109.71 1187.91 109.629C1187.85 109.535 1187.88 109.522 1188 109.589C1188.15 109.696 1188.15 109.67 1188 109.482C1187.91 109.347 1187.73 109.267 1187.62 109.28C1187.51 109.307 1187.41 109.226 1187.41 109.119C1187.41 109.012 1187.31 108.918 1187.2 108.918C1187.08 108.918 1186.94 108.864 1186.88 108.797C1186.81 108.73 1186.85 108.716 1186.97 108.783C1187.13 108.891 1187.13 108.877 1186.98 108.676C1186.8 108.434 1186.52 108.354 1186.65 108.582C1186.78 108.797 1186.64 108.73 1186.44 108.488C1186.29 108.287 1186.29 108.273 1186.46 108.38C1186.62 108.488 1186.62 108.474 1186.47 108.273C1186.28 108.018 1186.01 107.964 1186.15 108.206C1186.22 108.3 1186.19 108.313 1186.09 108.26C1186 108.193 1185.96 108.112 1186 108.072C1186.09 107.978 1185.83 107.642 1185.67 107.642C1185.6 107.642 1185.59 107.723 1185.64 107.803C1185.69 107.911 1185.68 107.937 1185.62 107.87C1185.55 107.803 1185.5 107.682 1185.5 107.602C1185.5 107.508 1185.4 107.441 1185.29 107.441C1185.17 107.441 1185.03 107.387 1184.97 107.32C1184.9 107.253 1184.94 107.239 1185.06 107.306C1185.22 107.414 1185.22 107.4 1185.07 107.199C1184.89 106.957 1184.61 106.877 1184.74 107.105C1184.87 107.32 1184.73 107.253 1184.53 107.011C1184.38 106.809 1184.38 106.796 1184.55 106.903C1184.71 107.011 1184.71 106.997 1184.56 106.796C1184.37 106.541 1184.1 106.487 1184.24 106.729C1184.31 106.823 1184.28 106.836 1184.18 106.783C1184.09 106.715 1184.05 106.635 1184.09 106.595C1184.18 106.501 1183.92 106.165 1183.76 106.165C1183.69 106.165 1183.68 106.232 1183.73 106.326C1183.8 106.42 1183.77 106.433 1183.67 106.38C1183.58 106.313 1183.54 106.232 1183.58 106.192C1183.67 106.098 1183.41 105.762 1183.25 105.762C1183.18 105.762 1183.17 105.843 1183.22 105.923C1183.27 106.031 1183.26 106.058 1183.2 105.99C1183.13 105.923 1183.08 105.802 1183.08 105.722C1183.08 105.655 1183.01 105.561 1182.9 105.52C1182.8 105.48 1182.76 105.52 1182.82 105.614C1182.96 105.843 1182.82 105.789 1182.62 105.534C1182.47 105.332 1182.47 105.319 1182.64 105.426C1182.8 105.534 1182.8 105.52 1182.65 105.319C1182.46 105.064 1182.19 105.01 1182.33 105.252C1182.39 105.346 1182.37 105.359 1182.27 105.306C1182.18 105.238 1182.14 105.158 1182.18 105.118C1182.27 105.024 1182.01 104.688 1181.85 104.688C1181.78 104.688 1181.77 104.768 1181.82 104.849C1181.87 104.956 1181.86 104.983 1181.8 104.916C1181.73 104.849 1181.68 104.728 1181.68 104.648C1181.68 104.554 1181.58 104.486 1181.47 104.486C1181.35 104.486 1181.21 104.433 1181.15 104.366C1181.08 104.299 1181.12 104.285 1181.24 104.352C1181.4 104.46 1181.4 104.446 1181.25 104.245C1181.07 104.003 1180.79 103.923 1180.92 104.151C1181.05 104.366 1180.9 104.299 1180.71 104.057C1180.56 103.855 1180.56 103.842 1180.73 103.949C1180.89 104.057 1180.89 104.043 1180.74 103.842C1180.56 103.6 1180.28 103.52 1180.41 103.748C1180.54 103.963 1180.4 103.896 1180.2 103.654C1180.05 103.453 1180.05 103.439 1180.22 103.547C1180.38 103.654 1180.38 103.641 1180.23 103.439C1180.04 103.184 1179.77 103.13 1179.91 103.372C1179.98 103.466 1179.95 103.479 1179.85 103.426C1179.76 103.359 1179.72 103.278 1179.76 103.238C1179.85 103.144 1179.59 102.808 1179.43 102.808C1179.36 102.808 1179.35 102.889 1179.4 102.969C1179.45 103.077 1179.44 103.103 1179.38 103.036C1179.31 102.969 1179.26 102.848 1179.26 102.768C1179.26 102.674 1179.16 102.607 1179.05 102.607C1178.93 102.607 1178.79 102.553 1178.73 102.486C1178.66 102.419 1178.7 102.405 1178.82 102.472C1178.98 102.58 1178.98 102.566 1178.83 102.365C1178.65 102.123 1178.37 102.043 1178.5 102.271C1178.63 102.486 1178.49 102.419 1178.29 102.177C1178.14 101.976 1178.14 101.962 1178.31 102.07C1178.47 102.177 1178.47 102.164 1178.32 101.962C1178.12 101.694 1177.86 101.653 1178 101.895C1178.05 102.002 1178.04 102.029 1177.98 101.962C1177.91 101.895 1177.86 101.774 1177.86 101.694C1177.86 101.6 1177.76 101.532 1177.64 101.532C1177.52 101.532 1177.42 101.465 1177.4 101.398C1177.39 101.21 1177.15 100.928 1177.01 100.928C1176.94 100.928 1176.93 101.009 1176.98 101.089C1177.03 101.197 1177.02 101.224 1176.96 101.156C1176.89 101.089 1176.84 100.968 1176.84 100.888C1176.84 100.821 1176.77 100.727 1176.66 100.686C1176.56 100.646 1176.52 100.686 1176.58 100.78C1176.72 101.009 1176.58 100.955 1176.38 100.7C1176.23 100.498 1176.23 100.485 1176.4 100.592C1176.56 100.7 1176.56 100.686 1176.41 100.485C1176.23 100.243 1175.95 100.163 1176.08 100.391C1176.21 100.606 1176.07 100.539 1175.87 100.297C1175.72 100.096 1175.72 100.082 1175.89 100.19C1176.05 100.297 1176.05 100.284 1175.9 100.082C1175.7 99.8137 1175.44 99.7734 1175.58 100.015C1175.63 100.123 1175.62 100.149 1175.56 100.082C1175.49 100.015 1175.44 99.8942 1175.44 99.8137C1175.44 99.7197 1175.33 99.6525 1175.19 99.6525C1175.05 99.6525 1174.93 99.5586 1174.93 99.4511C1174.93 99.3437 1174.83 99.2497 1174.72 99.2497C1174.6 99.2497 1174.46 99.196 1174.4 99.1289C1174.33 99.0617 1174.37 99.0483 1174.49 99.1154C1174.65 99.2229 1174.65 99.2094 1174.5 99.008C1174.3 98.7395 1174.04 98.6992 1174.18 98.9409C1174.24 99.0617 1174.21 99.0617 1174.07 98.9275C1173.81 98.7126 1173.77 98.5783 1174.02 98.726C1174.12 98.7932 1174.12 98.7529 1173.99 98.6052C1173.79 98.3366 1173.53 98.2964 1173.67 98.5381C1173.72 98.6455 1173.71 98.6723 1173.65 98.6052C1173.58 98.5381 1173.53 98.4441 1173.53 98.4038C1173.53 98.2292 1173.33 97.9741 1173.2 97.9741C1173.12 97.9741 1173.11 98.0547 1173.16 98.1352C1173.21 98.2427 1173.2 98.2695 1173.14 98.2024C1173.07 98.1352 1173.02 98.0144 1173.02 97.9338C1173.02 97.8398 1172.92 97.7727 1172.81 97.7727C1172.69 97.7727 1172.55 97.719 1172.49 97.6518C1172.42 97.5847 1172.46 97.5713 1172.58 97.6384C1172.74 97.7458 1172.74 97.7324 1172.59 97.531C1172.39 97.2624 1172.13 97.2222 1172.27 97.4638C1172.33 97.5847 1172.3 97.5847 1172.16 97.4504C1171.9 97.2356 1171.86 97.1013 1172.11 97.249C1172.21 97.3161 1172.21 97.2759 1172.08 97.1282C1171.88 96.8596 1171.62 96.8193 1171.76 97.061C1171.81 97.1684 1171.8 97.1953 1171.74 97.1282C1171.67 97.061 1171.62 96.967 1171.62 96.9267C1171.62 96.7522 1171.42 96.4971 1171.29 96.4971C1171.21 96.4971 1171.2 96.5776 1171.25 96.6582C1171.3 96.7656 1171.29 96.7925 1171.23 96.7253C1171.16 96.6582 1171.11 96.5642 1171.11 96.5239C1171.11 96.3494 1170.91 96.0942 1170.78 96.0942C1170.7 96.0942 1170.69 96.1748 1170.74 96.2554C1170.79 96.3628 1170.78 96.3896 1170.72 96.3225C1170.65 96.2554 1170.6 96.1345 1170.6 96.0539C1170.6 95.9868 1170.53 95.8928 1170.42 95.8525C1170.31 95.8123 1170.28 95.8525 1170.36 95.9734C1170.45 96.1345 1170.42 96.1345 1170.25 95.9734C1169.99 95.7585 1169.95 95.6243 1170.19 95.772C1170.3 95.8391 1170.3 95.7988 1170.17 95.6511C1169.97 95.3826 1169.71 95.3423 1169.85 95.584C1169.9 95.6914 1169.89 95.7183 1169.83 95.6511C1169.76 95.584 1169.71 95.49 1169.71 95.4497C1169.71 95.2751 1169.51 95.02 1169.38 95.02C1169.3 95.02 1169.29 95.1006 1169.34 95.1812C1169.39 95.2886 1169.38 95.3154 1169.32 95.2483C1169.25 95.1812 1169.2 95.0603 1169.2 94.9797C1169.2 94.8857 1169.09 94.8186 1168.95 94.8186C1168.81 94.8186 1168.69 94.7246 1168.69 94.6172C1168.69 94.5098 1168.59 94.4158 1168.48 94.4158C1168.36 94.4158 1168.22 94.3621 1168.16 94.2949C1168.09 94.2278 1168.13 94.2144 1168.25 94.2815C1168.41 94.3889 1168.41 94.3755 1168.26 94.1741C1168.06 93.9055 1167.8 93.8652 1167.94 94.1069C1167.99 94.2144 1167.98 94.2412 1167.92 94.1741C1167.85 94.1069 1167.8 94.013 1167.8 93.9727C1167.8 93.7981 1167.6 93.543 1167.47 93.543C1167.39 93.543 1167.38 93.6236 1167.43 93.7041C1167.48 93.8115 1167.47 93.8384 1167.41 93.7713C1167.34 93.7041 1167.29 93.6101 1167.29 93.5698C1167.29 93.3953 1167.09 93.1402 1166.96 93.1402C1166.88 93.1402 1166.87 93.2207 1166.92 93.3013C1166.97 93.4087 1166.96 93.4356 1166.9 93.3684C1166.83 93.3013 1166.78 93.1804 1166.78 93.0999C1166.78 93.0059 1166.68 92.9387 1166.57 92.9387C1166.45 92.9387 1166.31 92.885 1166.25 92.8179C1166.18 92.7508 1166.22 92.7373 1166.34 92.8045C1166.5 92.9119 1166.5 92.8985 1166.35 92.697C1166.15 92.4285 1165.89 92.3882 1166.03 92.6299C1166.09 92.7508 1166.06 92.7508 1165.92 92.6165C1165.66 92.4016 1165.62 92.2674 1165.87 92.4151C1165.97 92.4822 1165.97 92.4419 1165.84 92.2942C1165.64 92.0257 1165.38 91.9854 1165.52 92.2271C1165.57 92.3345 1165.56 92.3614 1165.5 92.2942C1165.43 92.2271 1165.38 92.1062 1165.38 92.0257C1165.38 91.9317 1165.27 91.8645 1165.13 91.8645C1164.99 91.8645 1164.87 91.7705 1164.87 91.6631C1164.87 91.5557 1164.77 91.4617 1164.66 91.4617C1164.54 91.4617 1164.4 91.408 1164.34 91.3409C1164.27 91.2737 1164.31 91.2603 1164.43 91.3274C1164.59 91.4349 1164.59 91.4214 1164.44 91.22C1164.24 90.9515 1163.98 90.9112 1164.12 91.1529C1164.18 91.2737 1164.15 91.2737 1164.01 91.1394C1163.75 90.9246 1163.71 90.7903 1163.95 90.938C1164.06 91.0052 1164.06 90.9649 1163.93 90.8172C1163.73 90.5486 1163.47 90.5083 1163.61 90.75C1163.66 90.8575 1163.65 90.8843 1163.59 90.8172C1163.52 90.75 1163.47 90.656 1163.47 90.6158C1163.47 90.4412 1163.27 90.1861 1163.14 90.1861C1163.06 90.1861 1163.05 90.2666 1163.1 90.3472C1163.15 90.4546 1163.14 90.4815 1163.08 90.4144C1163.01 90.3472 1162.96 90.2532 1162.96 90.2129C1162.96 90.0384 1162.76 89.7833 1162.63 89.7833C1162.55 89.7833 1162.54 89.8638 1162.59 89.9444C1162.64 90.0518 1162.63 90.0787 1162.57 90.0115C1162.5 89.9444 1162.45 89.8235 1162.45 89.743C1162.45 89.649 1162.35 89.5818 1162.24 89.5818C1162.12 89.5818 1161.98 89.5281 1161.92 89.461C1161.87 89.3939 1161.88 89.3804 1161.98 89.4341C1162.3 89.6356 1162.12 89.3804 1161.71 89.0984L1161.31 88.7896L1161.56 89.1119L1161.82 89.4207L1161.47 89.179C1161.28 89.0582 1161.15 88.8836 1161.2 88.803C1161.24 88.7359 1161.22 88.709 1161.15 88.7493C1161.08 88.803 1160.67 88.5748 1160.24 88.2391L1159.46 87.6348L1159.45 88.2794C1159.43 88.6285 1159.41 88.803 1159.37 88.6688C1159.22 88.0377 1158.71 88.897 1158.61 89.9712C1158.57 90.3472 1158.72 92.3748 1158.94 94.4829C1159.15 96.5911 1159.5 100.015 1159.71 102.096C1160.59 110.744 1160.87 113.604 1161.24 117.135C1162.39 128.522 1162.34 128.106 1162.72 128.911C1163.01 129.502 1163.43 129.972 1163.53 129.798C1163.59 129.717 1163.69 130.147 1163.76 130.751C1163.85 131.355 1163.94 131.879 1163.98 131.919C1164.01 131.946 1164.71 131.906 1165.52 131.812C1166.34 131.718 1167.38 131.677 1167.85 131.731C1169.85 131.919 1172.02 132.899 1173.3 134.188C1173.71 134.591 1173.94 134.846 1173.81 134.752C1173.68 134.658 1173.77 134.887 1174.03 135.303C1174.64 136.283 1175.19 137.948 1175.38 139.412C1175.57 140.916 1175.4 142.473 1174.88 144.031C1174.36 145.588 1173.79 146.501 1172.51 147.858C1171.21 149.241 1170.04 149.979 1168.3 150.503C1167 150.892 1164.67 150.933 1163.41 150.57C1162.52 150.315 1160.96 149.59 1160.31 149.106L1159.91 148.811L1160.22 149.214L1160.54 149.603L1160.19 149.268C1159.98 149.08 1159.56 148.569 1159.24 148.126C1158.71 147.388 1158.45 146.877 1157.51 144.675L1157.18 143.897L1156.73 144.098C1156.21 144.326 1156.11 144.34 1156.2 144.179C1156.25 144.111 1156.01 143.923 1155.69 143.762C1155.22 143.521 1154.96 143.467 1154.37 143.534C1153.59 143.601 1153.27 143.749 1139.02 150.342C1135.8 151.832 1131.12 153.994 1128.64 155.135C1122.54 157.942 1121.38 158.533 1120.9 159.137C1120.4 159.714 1120.34 160.359 1120.76 160.52C1120.99 160.614 1120.91 160.681 1120.24 161.003C1119.8 161.205 1119.47 161.393 1119.5 161.42C1119.54 161.446 1153.96 177.533 1156.44 178.674C1157.13 178.983 1157.7 179.225 1157.73 179.198C1157.75 179.171 1158.14 178.392 1158.58 177.466C1159.31 175.948 1159.5 175.666 1160.59 174.498C1161.64 173.397 1161.98 173.128 1163.03 172.605C1164.41 171.893 1165.52 171.571 1167.01 171.463C1169.23 171.316 1172.07 172.336 1173.6 173.84C1173.98 174.216 1174.21 174.485 1174.1 174.431C1173.95 174.35 1173.95 174.377 1174.12 174.592C1174.51 175.075 1175.26 176.821 1175.52 177.855C1175.86 179.225 1175.89 181.346 1175.57 182.702C1174.88 185.67 1173.01 188.167 1170.5 189.47C1169.11 190.195 1168.28 190.437 1166.55 190.625C1165.85 190.692 1165.06 190.826 1164.8 190.893C1163.87 191.162 1163.22 192.021 1162.97 193.31C1162.89 193.82 1160.06 220.501 1159.4 227.255C1159.15 229.592 1159.23 230.384 1159.73 230.961C1160.03 231.31 1160.11 231.351 1160.24 231.176C1160.38 230.975 1160.33 232.492 1160.13 234.05C1160.07 234.587 1160.08 234.694 1160.24 234.587C1160.39 234.493 1191.19 210.806 1193.17 209.262L1193.83 208.752L1192.95 207.315C1191.44 204.871 1190.95 203.126 1191.08 200.507C1191.12 199.447 1191.23 198.721 1191.46 197.983C1193.22 192.236 1199.24 189.282 1204.5 191.578C1205.52 192.035 1206.95 193.042 1207.53 193.726C1207.83 194.062 1207.84 194.116 1207.61 193.914L1207.29 193.646L1207.57 194.076C1208.54 195.539 1209.13 197.688 1209.13 199.742C1209.11 201.608 1208.9 202.589 1207.98 204.724C1207.67 205.422 1207.41 206.268 1207.37 206.603C1207.3 207.275 1207.62 208.295 1207.85 208.148C1208.03 208.027 1208 208.175 1207.79 208.524C1207.61 208.819 1207.62 208.859 1208.14 209.235C1208.44 209.464 1214.87 214.445 1222.43 220.313C1235.38 230.357 1240.03 233.942 1240.43 234.184C1240.57 234.278 1240.59 234.157 1240.53 233.58C1240.48 233.177 1239.5 223.522 1238.35 212.109C1237.19 200.695 1236.22 191.162 1236.19 190.92L1236.11 190.463L1235.28 190.517C1234.71 190.544 1234.47 190.504 1234.47 190.396C1234.47 190.222 1233.78 189.644 1233.39 189.497C1233.24 189.443 1232.44 189.309 1231.6 189.201C1229.48 188.919 1228.2 188.49 1226.85 187.59C1226.38 187.268 1226.19 187.187 1226.32 187.362C1226.42 187.509 1226.27 187.348 1225.96 187.013C1224.37 185.227 1223.34 182.044 1223.57 179.641C1223.94 175.827 1225.9 172.726 1228.93 171.141C1230.55 170.309 1231.77 170.04 1233.69 170.107C1235.55 170.188 1236.79 170.537 1238.15 171.383C1239.03 171.933 1240.11 172.873 1240.02 173.008C1239.94 173.155 1241.41 175.116 1241.6 175.116C1241.73 175.116 1242.81 177.13 1243.04 177.788C1243.09 177.962 1242.94 178.03 1251.34 174.136C1255.34 172.283 1263.3 168.603 1269.04 165.945C1281.37 160.238 1280.19 160.815 1280.19 160.614C1280.19 160.52 1279.77 160.251 1279.27 160.01C1277.22 159.016 1276.31 158.533 1276.48 158.533C1276.8 158.533 1276.15 157.915 1275.37 157.485C1274.96 157.257 1273.16 156.384 1271.33 155.538C1269.51 154.692 1265.22 152.678 1261.78 151.08C1243.32 142.446 1243.61 142.581 1242.94 142.406C1242.11 142.191 1241.31 142.312 1240.76 142.755C1240.52 142.957 1239.92 143.668 1239.45 144.353C1237.69 146.837 1235.98 148.099 1233.45 148.798C1232.29 149.12 1230.1 149.093 1228.85 148.744C1227.88 148.475 1226.22 147.697 1225.76 147.267C1225.55 147.092 1225.53 147.092 1225.6 147.253C1225.66 147.361 1225.41 147.133 1225.06 146.73C1224.7 146.327 1224.19 145.548 1223.91 144.984C1220.9 138.888 1224.22 131.557 1230.65 130.12C1231.41 129.945 1232 129.918 1233.55 129.999C1234.61 130.039 1235.49 130.039 1235.49 129.986C1235.49 129.932 1235.77 127.193 1236.12 123.903C1237.14 114.262 1239.94 87.514 1239.94 87.4334C1239.94 87.2857 1239.71 87.4066 1238.99 87.984ZM1188.51 110.019C1188.67 110.234 1188.66 110.247 1188.47 110.072C1188.34 109.978 1188.24 109.871 1188.24 109.844C1188.24 109.737 1188.34 109.804 1188.51 110.019ZM1202.57 149.469C1204.55 150.02 1206.23 150.973 1207.53 152.289C1207.89 152.638 1208.06 152.839 1207.92 152.745C1207.69 152.571 1207.7 152.598 1207.95 153.027C1208.42 153.793 1209.07 155.189 1209.3 155.914C1209.6 156.854 1209.89 158.721 1209.89 159.607C1209.89 160.493 1209.6 162.36 1209.3 163.299C1208.14 167.032 1205.13 169.986 1201.42 171.034C1199.98 171.437 1197.38 171.437 1195.94 171.034C1194.94 170.752 1193.31 169.986 1192.44 169.396C1192.05 169.114 1192.01 169.114 1192.18 169.342C1192.26 169.49 1192.07 169.302 1191.74 168.939C1186.8 163.501 1188.25 154.236 1194.62 150.624C1195.79 149.952 1196.4 149.724 1197.79 149.388C1199.08 149.08 1201.33 149.12 1202.57 149.469Z" stroke="black" stroke-width="11"/>
<path d="M1192.09 120.341C1192.09 120.375 1192.22 120.512 1192.38 120.632C1192.62 120.855 1192.64 120.837 1192.43 120.564C1192.22 120.29 1192.09 120.204 1192.09 120.341Z" fill="#50AF31"/>
</g>
<defs>
<clipPath id="clip0_67_42">
<rect width="1321" height="321" fill="white"/>
</clipPath>
</defs>
</svg>
