<svg width="617" height="628" viewBox="0 0 617 628" fill="none" xmlns="http://www.w3.org/2000/svg">
<path d="M532.913 238.253L520.358 227.664L521.712 227.817L609.062 237.676L588.835 285.421L532.913 238.253ZM518.441 227.447L519.115 227.523L524.101 244.046C530.773 266.155 534.375 289.641 534.375 314C534.375 445.486 429.735 551.85 300.787 551.85C171.84 551.85 67.2 445.486 67.2 314C67.2 182.514 171.84 76.15 300.787 76.15C392.75 76.15 472.326 130.237 510.427 208.997L513.228 214.787L513.186 214.805L515.346 219.839C515.986 221.331 516.604 222.844 517.221 224.39L518.441 227.447ZM517.734 212.832L519.886 209.753L573.618 132.883L603.514 175.632L518.213 212.625L517.734 212.832ZM198.976 295.05L205.901 288.552L196.819 285.779L166.933 276.653L166.919 276.648L166.904 276.644C161.702 275.087 158.631 269.388 160.274 263.986L160.285 263.95L160.295 263.913C161.853 258.524 167.336 255.582 172.605 257.152C172.61 257.153 172.615 257.154 172.619 257.156L249.715 280.697L249.73 280.702L249.744 280.706C254.946 282.263 258.017 287.962 256.375 293.364L256.371 293.376L256.367 293.388C255.057 297.771 251.23 300.544 247.124 300.647C247.106 300.644 247.086 300.64 247.062 300.636C246.925 300.612 246.668 300.566 246.382 300.529C246.087 300.492 245.697 300.454 245.248 300.454H238.171L239.918 307.311C240.17 308.302 240.4 309.118 240.598 309.824C241.085 311.557 241.387 312.63 241.387 314C241.387 328.423 229.972 339.9 216.037 339.9C202.079 339.9 190.59 328.4 190.59 314C190.59 306.531 193.81 299.897 198.976 295.05ZM427.045 276.644L427.03 276.648L427.016 276.653L397.13 285.779L388.041 288.554L394.976 295.052C400.05 299.807 403.359 306.54 403.359 314C403.359 328.423 391.944 339.9 378.009 339.9C364.074 339.9 352.659 328.423 352.659 314C352.659 312.186 353.189 310.433 353.996 307.764L354.062 307.545L356.632 299.046L347.878 300.531C347.843 300.537 347.809 300.543 347.775 300.549L347.646 300.571L347.573 300.584C347.533 300.591 347.495 300.597 347.459 300.603C347.347 300.622 347.276 300.633 347.222 300.641C347.181 300.647 347.158 300.649 347.147 300.65C342.964 300.645 339.027 297.861 337.685 293.412C336.095 287.859 339.22 282.245 344.319 280.701L344.33 280.697L421.444 257.151C421.444 257.15 421.445 257.15 421.445 257.15C426.579 255.596 432.189 258.586 433.754 263.925C435.348 269.465 432.244 275.088 427.045 276.644ZM426.087 225.113H172.962C149.794 225.113 134.954 239.18 126.353 256.806C117.839 274.253 115.015 295.818 115.599 313.213C116.231 332.187 127.275 351.229 141.457 365.33C155.579 379.371 174.019 389.699 190.73 389.699C221.919 389.699 240.727 379.217 256.225 369.045C257.956 367.91 259.627 366.794 261.254 365.708C274.309 356.994 284.507 350.187 299.525 350.174C314.542 350.187 324.74 356.994 337.795 365.708C339.422 366.794 341.093 367.91 342.824 369.045C358.323 379.217 377.13 389.699 408.319 389.699C425.031 389.699 443.47 379.371 457.592 365.33C471.774 351.229 482.818 332.187 483.45 313.213C484.034 295.818 481.21 274.253 472.696 256.806C464.095 239.18 449.255 225.113 426.087 225.113Z" fill="#122644" stroke="black" stroke-width="11"/>
</svg>
