<svg width="207" height="192" viewBox="0 0 207 192" fill="none" xmlns="http://www.w3.org/2000/svg">
<path d="M141.988 22.984C141.021 23.7493 140.766 23.9105 140.842 23.6688C140.97 23.3465 140.422 22.9034 139.9 22.9034C139.212 22.9034 138.27 23.4539 136.143 25.1055C135.15 25.8709 129.343 30.3423 123.23 35.0419C117.117 39.7416 111.781 43.8505 111.387 44.1593C109.336 45.7438 108.891 46.3346 108.891 47.4222C108.878 47.9325 108.942 48.201 109.133 48.4293C109.273 48.5904 109.311 48.6844 109.234 48.6307C108.993 48.4964 109.018 48.5636 109.578 49.866C110.368 51.7056 110.533 52.5247 110.533 54.4583C110.533 56.4993 110.304 57.5063 109.476 59.2251C109.005 60.1919 108.661 60.6753 107.732 61.6421C107.082 62.3269 106.229 63.0788 105.758 63.3608C102.943 65.0795 99.2504 65.1467 96.3596 63.5219C95.9011 63.2668 95.4809 63.0922 95.4299 63.1325C95.379 63.1594 95.0861 62.8908 94.7805 62.5148C92.6155 59.8696 91.8769 56.0159 92.9084 52.6993C93.2778 51.5311 93.5452 50.9805 94.5003 49.5303C94.946 48.8455 95.3153 48.2547 95.3153 48.2144C95.3153 48.1876 94.513 47.5162 93.5325 46.7374C91.9406 45.4618 91.4312 44.9918 91.9151 45.2738C91.9915 45.3141 91.9024 45.2067 91.6859 45.0052C91.4821 44.8173 91.2402 44.6964 91.151 44.7233C91.0619 44.7501 90.96 44.7098 90.9091 44.6293C90.8454 44.5353 90.8836 44.5218 90.9982 44.589C91.151 44.6964 91.151 44.6695 90.9982 44.4816C90.9091 44.3473 90.7308 44.2667 90.6162 44.2801C90.5143 44.307 90.4124 44.2264 90.4124 44.119C90.4124 44.0116 90.3105 43.9176 90.1959 43.9176C90.0813 43.9176 89.9412 43.8639 89.8776 43.7968C89.8139 43.7296 89.8521 43.7162 89.9667 43.7833C90.1323 43.8907 90.1323 43.8773 89.9794 43.6759C89.8012 43.4342 89.521 43.3536 89.6483 43.5819C89.7757 43.7968 89.6356 43.7296 89.4446 43.4879C89.2918 43.2865 89.2918 43.2731 89.4573 43.3805C89.6229 43.4879 89.6229 43.4745 89.47 43.2731C89.279 43.018 89.0116 42.9642 89.1517 43.2059C89.2154 43.2999 89.1899 43.3134 89.088 43.2596C88.9989 43.1925 88.9607 43.1119 88.9989 43.0717C89.088 42.9777 88.8333 42.642 88.6678 42.642C88.6041 42.642 88.5913 42.7225 88.6423 42.8031C88.6932 42.9105 88.6805 42.9374 88.6168 42.8702C88.5531 42.8031 88.5022 42.6823 88.5022 42.6017C88.5022 42.5077 88.4003 42.4406 88.2857 42.4406C88.1711 42.4406 88.031 42.3869 87.9673 42.3197C87.9037 42.2526 87.9419 42.2391 88.0565 42.3063C88.222 42.4137 88.222 42.4003 88.0692 42.1989C87.8909 41.9572 87.6108 41.8766 87.7381 42.1049C87.8655 42.3197 87.7254 42.2526 87.5344 42.0109C87.3815 41.8095 87.3815 41.796 87.5471 41.9035C87.7126 42.0109 87.7126 41.9975 87.5598 41.796C87.3688 41.5409 87.1014 41.4872 87.2415 41.7289C87.3051 41.8229 87.2797 41.8363 87.1778 41.7826C87.0886 41.7155 87.0504 41.6349 87.0886 41.5946C87.1778 41.5006 86.9231 41.1649 86.7575 41.1649C86.6939 41.1649 86.6811 41.2321 86.7321 41.3261C86.7957 41.4201 86.7703 41.4335 86.6684 41.3798C86.5792 41.3126 86.541 41.2321 86.5792 41.1918C86.6684 41.0978 86.4137 40.7621 86.2481 40.7621C86.1845 40.7621 86.1717 40.8427 86.2227 40.9232C86.2736 41.0307 86.2609 41.0575 86.1972 40.9904C86.1335 40.9232 86.0826 40.8024 86.0826 40.7218C86.0826 40.6547 86.0062 40.5607 85.9043 40.5204C85.8024 40.4801 85.7642 40.5204 85.8152 40.6144C85.9552 40.8427 85.8152 40.789 85.6241 40.5338C85.4713 40.3324 85.4713 40.319 85.6369 40.4264C85.8024 40.5338 85.8024 40.5204 85.6496 40.319C85.4586 40.0639 85.1912 40.0102 85.3312 40.2519C85.3949 40.3459 85.3694 40.3593 85.2676 40.3056C85.1784 40.2384 85.1402 40.1579 85.1784 40.1176C85.2676 40.0236 85.0129 39.6879 84.8473 39.6879C84.7836 39.6879 84.7709 39.7685 84.8218 39.849C84.8728 39.9565 84.86 39.9833 84.7964 39.9162C84.7327 39.849 84.6818 39.7282 84.6818 39.6476C84.6818 39.5536 84.5799 39.4865 84.4653 39.4865C84.3507 39.4865 84.2106 39.4328 84.1469 39.3656C84.0832 39.2985 84.1214 39.2851 84.236 39.3522C84.4016 39.4596 84.4016 39.4462 84.2488 39.2448C84.0705 39.0031 83.7903 38.9225 83.9177 39.1508C84.045 39.3656 83.9049 39.2985 83.7139 39.0568C83.5611 38.8554 83.5611 38.842 83.7267 38.9494C83.8922 39.0568 83.8922 39.0434 83.7394 38.842C83.5611 38.6003 83.2809 38.5197 83.4083 38.748C83.5356 38.9628 83.3955 38.8957 83.2045 38.654C83.0517 38.4526 83.0517 38.4391 83.2173 38.5466C83.3828 38.654 83.3828 38.6405 83.23 38.4391C83.039 38.184 82.7715 38.1303 82.9116 38.372C82.9753 38.466 82.9498 38.4794 82.8479 38.4257C82.7588 38.3586 82.7206 38.278 82.7588 38.2377C82.8479 38.1437 82.5933 37.808 82.4277 37.808C82.364 37.808 82.3513 37.8886 82.4022 37.9692C82.4532 38.0766 82.4404 38.1034 82.3768 38.0363C82.3131 37.9692 82.2621 37.8483 82.2621 37.7678C82.2621 37.6738 82.1603 37.6066 82.0457 37.6066C81.931 37.6066 81.791 37.5529 81.7273 37.4858C81.6636 37.4186 81.7018 37.4052 81.8164 37.4723C81.982 37.5798 81.982 37.5663 81.8292 37.3649C81.6509 37.1232 81.3707 37.0427 81.4981 37.2709C81.6254 37.4858 81.4853 37.4186 81.2943 37.1769C81.1415 36.9755 81.1415 36.9621 81.307 37.0695C81.4726 37.1769 81.4726 37.1635 81.3198 36.9621C81.116 36.6935 80.8613 36.6533 81.0014 36.895C81.0523 37.0024 81.0396 37.0292 80.9759 36.9621C80.9123 36.895 80.8613 36.7741 80.8613 36.6935C80.8613 36.5996 80.7594 36.5324 80.6448 36.5324C80.5175 36.5324 80.4156 36.4653 80.4029 36.3981C80.3901 36.2102 80.1482 35.9282 80.0081 35.9282C79.9444 35.9282 79.9317 36.0087 79.9826 36.0893C80.0336 36.1967 80.0208 36.2236 79.9571 36.1564C79.8935 36.0893 79.8425 35.9685 79.8425 35.8879C79.8425 35.8208 79.7661 35.7268 79.6642 35.6865C79.5624 35.6462 79.5242 35.6865 79.5751 35.7805C79.7152 36.0087 79.5751 35.955 79.3841 35.6999C79.2313 35.4985 79.2313 35.4851 79.3968 35.5925C79.5624 35.6999 79.5624 35.6865 79.4096 35.4851C79.2313 35.2434 78.9511 35.1628 79.0784 35.3911C79.2058 35.6059 79.0657 35.5388 78.8747 35.2971C78.7219 35.0957 78.7219 35.0822 78.8874 35.1897C79.053 35.2971 79.053 35.2836 78.9002 35.0822C78.6964 34.8137 78.4417 34.7734 78.5818 35.0151C78.6327 35.1225 78.62 35.1494 78.5563 35.0822C78.4926 35.0151 78.4417 34.8942 78.4417 34.8137C78.4417 34.7197 78.3271 34.6525 78.187 34.6525C78.0469 34.6525 77.9323 34.5586 77.9323 34.4511C77.9323 34.3437 77.8304 34.2497 77.7158 34.2497C77.6012 34.2497 77.4611 34.196 77.3975 34.1289C77.3338 34.0617 77.372 34.0483 77.4866 34.1154C77.6521 34.2229 77.6521 34.2094 77.4993 34.008C77.2956 33.7395 77.0409 33.6992 77.181 33.9409C77.2446 34.0617 77.2064 34.0617 77.0663 33.9275C76.8117 33.7126 76.7734 33.5783 77.0154 33.726C77.1173 33.7932 77.1173 33.7529 76.9899 33.6052C76.7862 33.3366 76.5315 33.2964 76.6716 33.5381C76.7225 33.6455 76.7098 33.6723 76.6461 33.6052C76.5824 33.5381 76.5315 33.4441 76.5315 33.4038C76.5315 33.2292 76.3277 32.9741 76.2004 32.9741C76.124 32.9741 76.1112 33.0547 76.1622 33.1352C76.2131 33.2427 76.2004 33.2695 76.1367 33.2024C76.073 33.1352 76.0221 33.0144 76.0221 32.9338C76.0221 32.8398 75.9202 32.7727 75.8056 32.7727C75.691 32.7727 75.5509 32.719 75.4872 32.6518C75.4236 32.5847 75.4618 32.5713 75.5764 32.6384C75.7419 32.7458 75.7419 32.7324 75.5891 32.531C75.3854 32.2624 75.1307 32.2222 75.2707 32.4638C75.3344 32.5847 75.2962 32.5847 75.1561 32.4504C74.9014 32.2356 74.8632 32.1013 75.1052 32.249C75.2071 32.3161 75.2071 32.2759 75.0797 32.1282C74.876 31.8596 74.6213 31.8193 74.7613 32.061C74.8123 32.1684 74.7996 32.1953 74.7359 32.1282C74.6722 32.061 74.6213 31.967 74.6213 31.9267C74.6213 31.7522 74.4175 31.4971 74.2902 31.4971C74.2138 31.4971 74.201 31.5776 74.252 31.6582C74.3029 31.7656 74.2902 31.7925 74.2265 31.7253C74.1628 31.6582 74.1119 31.5642 74.1119 31.5239C74.1119 31.3494 73.9081 31.0942 73.7808 31.0942C73.7044 31.0942 73.6916 31.1748 73.7426 31.2554C73.7935 31.3628 73.7808 31.3896 73.7171 31.3225C73.6534 31.2554 73.6025 31.1345 73.6025 31.0539C73.6025 30.9868 73.5261 30.8928 73.4242 30.8525C73.3096 30.8123 73.2841 30.8525 73.3605 30.9734C73.4497 31.1345 73.4242 31.1345 73.2459 30.9734C72.9912 30.7585 72.953 30.6243 73.195 30.772C73.2968 30.8391 73.2968 30.7988 73.1695 30.6511C72.9657 30.3826 72.711 30.3423 72.8511 30.584C72.9021 30.6914 72.8893 30.7183 72.8257 30.6511C72.762 30.584 72.711 30.49 72.711 30.4497C72.711 30.2751 72.5073 30.02 72.3799 30.02C72.3035 30.02 72.2908 30.1006 72.3417 30.1812C72.3927 30.2886 72.3799 30.3154 72.3163 30.2483C72.2526 30.1812 72.2017 30.0603 72.2017 29.9797C72.2017 29.8857 72.087 29.8186 71.947 29.8186C71.8069 29.8186 71.6923 29.7246 71.6923 29.6172C71.6923 29.5098 71.5904 29.4158 71.4758 29.4158C71.3612 29.4158 71.2211 29.3621 71.1574 29.2949C71.0937 29.2278 71.1319 29.2144 71.2465 29.2815C71.4121 29.3889 71.4121 29.3755 71.2593 29.1741C71.0555 28.9055 70.8008 28.8652 70.9409 29.1069C70.9918 29.2144 70.9791 29.2412 70.9154 29.1741C70.8518 29.1069 70.8008 29.013 70.8008 28.9727C70.8008 28.7981 70.5971 28.543 70.4697 28.543C70.3933 28.543 70.3806 28.6236 70.4315 28.7041C70.4825 28.8115 70.4697 28.8384 70.406 28.7713C70.3424 28.7041 70.2914 28.6101 70.2914 28.5698C70.2914 28.3953 70.0877 28.1402 69.9603 28.1402C69.8839 28.1402 69.8712 28.2207 69.9221 28.3013C69.9731 28.4087 69.9603 28.4356 69.8967 28.3684C69.833 28.3013 69.782 28.1804 69.782 28.0999C69.782 28.0059 69.6802 27.9387 69.5656 27.9387C69.4509 27.9387 69.3109 27.885 69.2472 27.8179C69.1835 27.7508 69.2217 27.7373 69.3363 27.8045C69.5019 27.9119 69.5019 27.8985 69.3491 27.697C69.1453 27.4285 68.8906 27.3882 69.0307 27.6299C69.0944 27.7508 69.0562 27.7508 68.9161 27.6165C68.6614 27.4016 68.6232 27.2674 68.8651 27.4151C68.967 27.4822 68.967 27.4419 68.8397 27.2942C68.6359 27.0257 68.3812 26.9854 68.5213 27.2271C68.5722 27.3345 68.5595 27.3614 68.4958 27.2942C68.4322 27.2271 68.3812 27.1062 68.3812 27.0257C68.3812 26.9317 68.2666 26.8645 68.1265 26.8645C67.9864 26.8645 67.8718 26.7705 67.8718 26.6631C67.8718 26.5557 67.7699 26.4617 67.6553 26.4617C67.5407 26.4617 67.4006 26.408 67.337 26.3409C67.2733 26.2737 67.3115 26.2603 67.4261 26.3274C67.5917 26.4349 67.5917 26.4214 67.4388 26.22C67.2351 25.9515 66.9804 25.9112 67.1205 26.1529C67.1841 26.2737 67.1459 26.2737 67.0059 26.1394C66.7512 25.9246 66.713 25.7903 66.9549 25.938C67.0568 26.0052 67.0568 25.9649 66.9294 25.8172C66.7257 25.5486 66.471 25.5083 66.6111 25.75C66.662 25.8575 66.6493 25.8843 66.5856 25.8172C66.5219 25.75 66.471 25.656 66.471 25.6158C66.471 25.4412 66.2672 25.1861 66.1399 25.1861C66.0635 25.1861 66.0507 25.2666 66.1017 25.3472C66.1526 25.4546 66.1399 25.4815 66.0762 25.4144C66.0125 25.3472 65.9616 25.2532 65.9616 25.2129C65.9616 25.0384 65.7578 24.7833 65.6305 24.7833C65.5541 24.7833 65.5414 24.8638 65.5923 24.9444C65.6432 25.0518 65.6305 25.0787 65.5668 25.0115C65.5031 24.9444 65.4522 24.8235 65.4522 24.743C65.4522 24.649 65.3503 24.5818 65.2357 24.5818C65.1211 24.5818 64.981 24.5281 64.9173 24.461C64.8664 24.3939 64.8791 24.3804 64.981 24.4341C65.2994 24.6356 65.1211 24.3804 64.7136 24.0984L64.3061 23.7896L64.5608 24.1119L64.8155 24.4207L64.4716 24.179C64.2806 24.0582 64.1533 23.8836 64.2042 23.803C64.2424 23.7359 64.2169 23.709 64.1533 23.7493C64.0769 23.803 63.6693 23.5748 63.2364 23.2391L62.4595 22.6348L62.4468 23.2794C62.4341 23.6285 62.4086 23.803 62.3704 23.6688C62.2176 23.0377 61.7082 23.897 61.6063 24.9712C61.5681 25.3472 61.7209 27.3748 61.9374 29.4829C62.1539 31.5911 62.4977 35.0151 62.7142 37.0964C63.5929 45.7438 63.8731 48.6038 64.2424 52.1353C65.3885 63.5219 65.3376 63.1057 65.7196 63.9113C66.0125 64.5021 66.4328 64.9721 66.5347 64.7975C66.5856 64.717 66.6875 65.1467 66.7639 65.7509C66.853 66.3551 66.9422 66.8788 66.9804 66.9191C67.0059 66.946 67.7063 66.9057 68.5213 66.8117C69.3363 66.7177 70.3806 66.6774 70.8518 66.7311C72.8511 66.9191 75.016 67.8993 76.3023 69.1884C76.7098 69.5912 76.939 69.8463 76.8117 69.7523C76.6843 69.6583 76.7734 69.8866 77.0281 70.3029C77.6394 71.2831 78.187 72.9481 78.378 74.4117C78.5691 75.9156 78.4035 77.4732 77.8814 79.0308C77.3592 80.5884 76.7862 81.5015 75.5127 82.8577C74.2138 84.2407 73.0422 84.9792 71.2975 85.5029C69.9985 85.8923 67.6681 85.9326 66.4073 85.5701C65.5159 85.3149 63.9622 84.5898 63.3128 84.1064L62.9052 83.811L63.2236 84.2139L63.542 84.6033L63.1854 84.2676C62.9817 84.0796 62.5614 83.5693 62.243 83.1262C61.7082 82.3877 61.4535 81.8775 60.5111 79.6753L60.18 78.8965L59.7343 79.0979C59.2122 79.3262 59.1103 79.3396 59.1994 79.1785C59.2504 79.1114 59.0084 78.9234 58.69 78.7623C58.2188 78.5206 57.9641 78.4669 57.3656 78.534C56.5888 78.6011 56.2704 78.7488 42.0202 85.3418C38.7983 86.8323 34.1246 88.9941 31.6413 90.1354C25.5413 92.9418 24.3825 93.5326 23.8985 94.1369C23.4019 94.7143 23.3382 95.3588 23.7585 95.5199C23.9877 95.6139 23.9113 95.681 23.2363 96.0033C22.8033 96.2047 22.4722 96.3927 22.4977 96.4196C22.5359 96.4464 56.9581 112.533 59.4414 113.674C60.1291 113.983 60.7021 114.225 60.7276 114.198C60.7531 114.171 61.1351 113.392 61.5808 112.466C62.3067 110.948 62.4977 110.666 63.5929 109.498C64.6372 108.397 64.981 108.128 66.0253 107.605C67.4134 106.893 68.5213 106.571 70.0113 106.463C72.2271 106.316 75.067 107.336 76.5952 108.84C76.9772 109.216 77.2064 109.485 77.1046 109.431C76.9517 109.35 76.9517 109.377 77.1173 109.592C77.5121 110.075 78.2634 111.821 78.5181 112.855C78.862 114.225 78.8874 116.346 78.5691 117.702C77.8814 120.67 76.0094 123.167 73.5006 124.47C72.1125 125.195 71.2848 125.437 69.5528 125.625C68.8524 125.692 68.0628 125.826 67.7954 125.893C66.8658 126.162 66.2163 127.021 65.9743 128.31C65.8852 128.82 63.0581 155.501 62.3959 162.255C62.1539 164.592 62.2303 165.384 62.727 165.961C63.0326 166.31 63.109 166.351 63.2364 166.176C63.3764 165.975 63.3255 167.492 63.1345 169.05C63.0708 169.587 63.0835 169.694 63.2364 169.587C63.3892 169.493 94.1947 145.806 96.1686 144.262L96.8308 143.752L95.9521 142.315C94.4366 139.871 93.9527 138.126 94.08 135.507C94.1183 134.447 94.2329 133.721 94.4621 132.983C96.2195 127.236 102.243 124.282 107.503 126.578C108.521 127.035 109.948 128.042 110.533 128.726C110.826 129.062 110.839 129.116 110.61 128.914L110.291 128.646L110.572 129.076C111.539 130.539 112.125 132.688 112.125 134.742C112.113 136.608 111.896 137.589 110.979 139.724C110.673 140.422 110.406 141.268 110.368 141.603C110.304 142.275 110.623 143.295 110.852 143.148C111.03 143.027 111.005 143.175 110.788 143.524C110.61 143.819 110.623 143.859 111.145 144.235C111.438 144.464 117.869 149.445 125.433 155.313C138.384 165.357 143.033 168.942 143.427 169.184C143.568 169.278 143.593 169.157 143.529 168.58C143.478 168.177 142.498 158.522 141.352 147.109C140.193 135.695 139.225 126.162 139.187 125.92L139.11 125.463L138.283 125.517C137.709 125.544 137.468 125.504 137.468 125.396C137.468 125.222 136.78 124.644 136.385 124.497C136.245 124.443 135.443 124.309 134.602 124.201C132.475 123.919 131.202 123.49 129.852 122.59C129.381 122.268 129.19 122.187 129.317 122.362C129.419 122.509 129.266 122.348 128.961 122.013C127.369 120.227 126.337 117.044 126.567 114.641C126.936 110.827 128.897 107.726 131.928 106.141C133.545 105.309 134.768 105.04 136.691 105.107C138.55 105.188 139.785 105.537 141.148 106.383C142.027 106.933 143.109 107.873 143.02 108.008C142.943 108.155 144.408 110.116 144.599 110.116C144.726 110.116 145.809 112.13 146.038 112.788C146.089 112.962 145.936 113.03 154.341 109.136C158.34 107.283 166.299 103.603 172.043 100.945C184.37 95.2379 183.185 95.8153 183.185 95.6139C183.185 95.5199 182.765 95.2514 182.269 95.0097C180.218 94.016 179.314 93.5326 179.48 93.5326C179.798 93.5326 179.149 92.915 178.372 92.4853C177.964 92.257 176.156 91.3842 174.335 90.5383C172.514 89.6923 168.222 87.6782 164.784 86.0803C146.318 77.4464 146.611 77.5806 145.936 77.4061C145.108 77.1912 144.306 77.3121 143.759 77.7552C143.517 77.9566 142.918 78.6683 142.447 79.3531C140.689 81.8372 138.983 83.0994 136.449 83.7976C135.29 84.1199 133.099 84.093 131.851 83.7439C130.884 83.4754 129.215 82.6965 128.757 82.2669C128.553 82.0923 128.528 82.0923 128.604 82.2534C128.655 82.3609 128.413 82.1326 128.057 81.7298C127.7 81.3269 127.191 80.5481 126.91 79.9842C123.905 73.888 127.216 66.5566 133.647 65.1198C134.411 64.9452 134.997 64.9184 136.551 64.999C137.608 65.0392 138.486 65.0392 138.486 64.9855C138.486 64.9318 138.766 62.1926 139.123 58.9028C140.142 49.2618 142.943 22.514 142.943 22.4334C142.943 22.2857 142.714 22.4066 141.988 22.984ZM91.5076 45.0187C91.6732 45.2335 91.6604 45.2469 91.4694 45.0724C91.3421 44.9784 91.2402 44.871 91.2402 44.8441C91.2402 44.7367 91.3421 44.8038 91.5076 45.0187ZM105.567 84.469C107.553 85.0195 109.234 85.9729 110.533 87.2888C110.89 87.6379 111.056 87.8393 110.915 87.7453C110.686 87.5708 110.699 87.5976 110.954 88.0273C111.425 88.7927 112.074 90.1892 112.304 90.9142C112.596 91.8542 112.889 93.7206 112.889 94.6068C112.889 95.4931 112.596 97.3595 112.304 98.2994C111.145 102.032 108.127 104.986 104.421 106.034C102.982 106.437 100.384 106.437 98.9447 106.034C97.9387 105.752 96.3086 104.986 95.4427 104.396C95.0479 104.114 95.0097 104.114 95.1752 104.342C95.2644 104.49 95.0734 104.302 94.7423 103.939C89.8012 98.5008 91.2529 89.2358 97.6203 85.6238C98.7919 84.9524 99.4032 84.7241 100.791 84.3884C102.078 84.0796 104.332 84.1199 105.567 84.469Z" fill="#FFCD00"/>
<path d="M141.988 22.984C141.021 23.7493 140.766 23.9105 140.842 23.6688C140.97 23.3465 140.422 22.9034 139.9 22.9034C139.212 22.9034 138.27 23.4539 136.143 25.1055C135.15 25.8709 129.343 30.3423 123.23 35.0419C117.117 39.7416 111.781 43.8505 111.387 44.1593C109.336 45.7438 108.891 46.3346 108.891 47.4222C108.878 47.9325 108.942 48.201 109.133 48.4293C109.273 48.5904 109.311 48.6844 109.234 48.6307C108.993 48.4964 109.018 48.5636 109.578 49.866C110.368 51.7056 110.533 52.5247 110.533 54.4583C110.533 56.4993 110.304 57.5063 109.476 59.2251C109.005 60.1919 108.661 60.6753 107.732 61.6421C107.082 62.3269 106.229 63.0788 105.758 63.3608C102.943 65.0795 99.2504 65.1467 96.3596 63.5219C95.9011 63.2668 95.4809 63.0922 95.4299 63.1325C95.379 63.1594 95.0861 62.8908 94.7805 62.5148C92.6155 59.8696 91.8769 56.0159 92.9084 52.6993C93.2778 51.5311 93.5452 50.9805 94.5003 49.5303C94.946 48.8455 95.3153 48.2547 95.3153 48.2144C95.3153 48.1876 94.513 47.5162 93.5325 46.7374C91.9406 45.4618 91.4312 44.9918 91.9151 45.2738C91.9915 45.3141 91.9024 45.2067 91.6859 45.0052C91.4821 44.8173 91.2402 44.6964 91.151 44.7233C91.0619 44.7501 90.96 44.7098 90.9091 44.6293C90.8454 44.5353 90.8836 44.5218 90.9982 44.589C91.151 44.6964 91.151 44.6695 90.9982 44.4816C90.9091 44.3473 90.7308 44.2667 90.6162 44.2801C90.5143 44.307 90.4124 44.2264 90.4124 44.119C90.4124 44.0116 90.3105 43.9176 90.1959 43.9176C90.0813 43.9176 89.9412 43.8639 89.8776 43.7968C89.8139 43.7296 89.8521 43.7162 89.9667 43.7833C90.1323 43.8907 90.1323 43.8773 89.9794 43.6759C89.8012 43.4342 89.521 43.3536 89.6483 43.5819C89.7757 43.7968 89.6356 43.7296 89.4446 43.4879C89.2918 43.2865 89.2918 43.2731 89.4573 43.3805C89.6229 43.4879 89.6229 43.4745 89.47 43.2731C89.279 43.018 89.0116 42.9642 89.1517 43.2059C89.2154 43.2999 89.1899 43.3134 89.088 43.2596C88.9989 43.1925 88.9607 43.1119 88.9989 43.0717C89.088 42.9777 88.8333 42.642 88.6678 42.642C88.6041 42.642 88.5913 42.7225 88.6423 42.8031C88.6932 42.9105 88.6805 42.9374 88.6168 42.8702C88.5531 42.8031 88.5022 42.6823 88.5022 42.6017C88.5022 42.5077 88.4003 42.4406 88.2857 42.4406C88.1711 42.4406 88.031 42.3869 87.9673 42.3197C87.9037 42.2526 87.9419 42.2391 88.0565 42.3063C88.222 42.4137 88.222 42.4003 88.0692 42.1989C87.8909 41.9572 87.6108 41.8766 87.7381 42.1049C87.8655 42.3197 87.7254 42.2526 87.5344 42.0109C87.3815 41.8095 87.3815 41.796 87.5471 41.9035C87.7126 42.0109 87.7126 41.9975 87.5598 41.796C87.3688 41.5409 87.1014 41.4872 87.2415 41.7289C87.3051 41.8229 87.2797 41.8363 87.1778 41.7826C87.0886 41.7155 87.0504 41.6349 87.0886 41.5946C87.1778 41.5006 86.9231 41.1649 86.7575 41.1649C86.6939 41.1649 86.6811 41.2321 86.7321 41.3261C86.7957 41.4201 86.7703 41.4335 86.6684 41.3798C86.5792 41.3126 86.541 41.2321 86.5792 41.1918C86.6684 41.0978 86.4137 40.7621 86.2481 40.7621C86.1845 40.7621 86.1717 40.8427 86.2227 40.9232C86.2736 41.0307 86.2609 41.0575 86.1972 40.9904C86.1335 40.9232 86.0826 40.8024 86.0826 40.7218C86.0826 40.6547 86.0062 40.5607 85.9043 40.5204C85.8024 40.4801 85.7642 40.5204 85.8152 40.6144C85.9552 40.8427 85.8152 40.789 85.6241 40.5338C85.4713 40.3324 85.4713 40.319 85.6369 40.4264C85.8024 40.5338 85.8024 40.5204 85.6496 40.319C85.4586 40.0639 85.1912 40.0102 85.3312 40.2519C85.3949 40.3459 85.3694 40.3593 85.2676 40.3056C85.1784 40.2384 85.1402 40.1579 85.1784 40.1176C85.2676 40.0236 85.0129 39.6879 84.8473 39.6879C84.7836 39.6879 84.7709 39.7685 84.8218 39.849C84.8728 39.9565 84.86 39.9833 84.7964 39.9162C84.7327 39.849 84.6818 39.7282 84.6818 39.6476C84.6818 39.5536 84.5799 39.4865 84.4653 39.4865C84.3507 39.4865 84.2106 39.4328 84.1469 39.3656C84.0832 39.2985 84.1214 39.2851 84.236 39.3522C84.4016 39.4596 84.4016 39.4462 84.2488 39.2448C84.0705 39.0031 83.7903 38.9225 83.9177 39.1508C84.045 39.3656 83.9049 39.2985 83.7139 39.0568C83.5611 38.8554 83.5611 38.842 83.7267 38.9494C83.8922 39.0568 83.8922 39.0434 83.7394 38.842C83.5611 38.6003 83.2809 38.5197 83.4083 38.748C83.5356 38.9628 83.3955 38.8957 83.2045 38.654C83.0517 38.4526 83.0517 38.4391 83.2173 38.5466C83.3828 38.654 83.3828 38.6405 83.23 38.4391C83.039 38.184 82.7715 38.1303 82.9116 38.372C82.9753 38.466 82.9498 38.4794 82.8479 38.4257C82.7588 38.3586 82.7206 38.278 82.7588 38.2377C82.8479 38.1437 82.5933 37.808 82.4277 37.808C82.364 37.808 82.3513 37.8886 82.4022 37.9692C82.4532 38.0766 82.4404 38.1034 82.3768 38.0363C82.3131 37.9692 82.2621 37.8483 82.2621 37.7678C82.2621 37.6738 82.1603 37.6066 82.0457 37.6066C81.931 37.6066 81.791 37.5529 81.7273 37.4858C81.6636 37.4186 81.7018 37.4052 81.8164 37.4723C81.982 37.5798 81.982 37.5663 81.8292 37.3649C81.6509 37.1232 81.3707 37.0427 81.4981 37.2709C81.6254 37.4858 81.4853 37.4186 81.2943 37.1769C81.1415 36.9755 81.1415 36.9621 81.307 37.0695C81.4726 37.1769 81.4726 37.1635 81.3198 36.9621C81.116 36.6935 80.8613 36.6533 81.0014 36.895C81.0523 37.0024 81.0396 37.0292 80.9759 36.9621C80.9123 36.895 80.8613 36.7741 80.8613 36.6935C80.8613 36.5996 80.7594 36.5324 80.6448 36.5324C80.5175 36.5324 80.4156 36.4653 80.4029 36.3981C80.3901 36.2102 80.1482 35.9282 80.0081 35.9282C79.9444 35.9282 79.9317 36.0087 79.9826 36.0893C80.0336 36.1967 80.0208 36.2236 79.9571 36.1564C79.8935 36.0893 79.8425 35.9685 79.8425 35.8879C79.8425 35.8208 79.7661 35.7268 79.6642 35.6865C79.5624 35.6462 79.5242 35.6865 79.5751 35.7805C79.7152 36.0087 79.5751 35.955 79.3841 35.6999C79.2313 35.4985 79.2313 35.4851 79.3968 35.5925C79.5624 35.6999 79.5624 35.6865 79.4096 35.4851C79.2313 35.2434 78.9511 35.1628 79.0784 35.3911C79.2058 35.6059 79.0657 35.5388 78.8747 35.2971C78.7219 35.0957 78.7219 35.0822 78.8874 35.1897C79.053 35.2971 79.053 35.2836 78.9002 35.0822C78.6964 34.8137 78.4417 34.7734 78.5818 35.0151C78.6327 35.1225 78.62 35.1494 78.5563 35.0822C78.4926 35.0151 78.4417 34.8942 78.4417 34.8137C78.4417 34.7197 78.3271 34.6525 78.187 34.6525C78.0469 34.6525 77.9323 34.5586 77.9323 34.4511C77.9323 34.3437 77.8304 34.2497 77.7158 34.2497C77.6012 34.2497 77.4611 34.196 77.3975 34.1289C77.3338 34.0617 77.372 34.0483 77.4866 34.1154C77.6521 34.2229 77.6521 34.2094 77.4993 34.008C77.2956 33.7395 77.0409 33.6992 77.181 33.9409C77.2446 34.0617 77.2064 34.0617 77.0663 33.9275C76.8117 33.7126 76.7734 33.5783 77.0154 33.726C77.1173 33.7932 77.1173 33.7529 76.9899 33.6052C76.7862 33.3366 76.5315 33.2964 76.6716 33.5381C76.7225 33.6455 76.7098 33.6723 76.6461 33.6052C76.5824 33.5381 76.5315 33.4441 76.5315 33.4038C76.5315 33.2292 76.3277 32.9741 76.2004 32.9741C76.124 32.9741 76.1112 33.0547 76.1622 33.1352C76.2131 33.2427 76.2004 33.2695 76.1367 33.2024C76.073 33.1352 76.0221 33.0144 76.0221 32.9338C76.0221 32.8398 75.9202 32.7727 75.8056 32.7727C75.691 32.7727 75.5509 32.719 75.4872 32.6518C75.4236 32.5847 75.4618 32.5713 75.5764 32.6384C75.7419 32.7458 75.7419 32.7324 75.5891 32.531C75.3854 32.2624 75.1307 32.2222 75.2707 32.4638C75.3344 32.5847 75.2962 32.5847 75.1561 32.4504C74.9014 32.2356 74.8632 32.1013 75.1052 32.249C75.2071 32.3161 75.2071 32.2759 75.0797 32.1282C74.876 31.8596 74.6213 31.8193 74.7613 32.061C74.8123 32.1684 74.7996 32.1953 74.7359 32.1282C74.6722 32.061 74.6213 31.967 74.6213 31.9267C74.6213 31.7522 74.4175 31.4971 74.2902 31.4971C74.2138 31.4971 74.201 31.5776 74.252 31.6582C74.3029 31.7656 74.2902 31.7925 74.2265 31.7253C74.1628 31.6582 74.1119 31.5642 74.1119 31.5239C74.1119 31.3494 73.9081 31.0942 73.7808 31.0942C73.7044 31.0942 73.6916 31.1748 73.7426 31.2554C73.7935 31.3628 73.7808 31.3896 73.7171 31.3225C73.6534 31.2554 73.6025 31.1345 73.6025 31.0539C73.6025 30.9868 73.5261 30.8928 73.4242 30.8525C73.3096 30.8123 73.2841 30.8525 73.3605 30.9734C73.4497 31.1345 73.4242 31.1345 73.2459 30.9734C72.9912 30.7585 72.953 30.6243 73.195 30.772C73.2968 30.8391 73.2968 30.7988 73.1695 30.6511C72.9657 30.3826 72.711 30.3423 72.8511 30.584C72.9021 30.6914 72.8893 30.7183 72.8257 30.6511C72.762 30.584 72.711 30.49 72.711 30.4497C72.711 30.2751 72.5073 30.02 72.3799 30.02C72.3035 30.02 72.2908 30.1006 72.3417 30.1812C72.3927 30.2886 72.3799 30.3154 72.3163 30.2483C72.2526 30.1812 72.2017 30.0603 72.2017 29.9797C72.2017 29.8857 72.087 29.8186 71.947 29.8186C71.8069 29.8186 71.6923 29.7246 71.6923 29.6172C71.6923 29.5098 71.5904 29.4158 71.4758 29.4158C71.3612 29.4158 71.2211 29.3621 71.1574 29.2949C71.0937 29.2278 71.1319 29.2144 71.2465 29.2815C71.4121 29.3889 71.4121 29.3755 71.2593 29.1741C71.0555 28.9055 70.8008 28.8652 70.9409 29.1069C70.9918 29.2144 70.9791 29.2412 70.9154 29.1741C70.8518 29.1069 70.8008 29.013 70.8008 28.9727C70.8008 28.7981 70.5971 28.543 70.4697 28.543C70.3933 28.543 70.3806 28.6236 70.4315 28.7041C70.4825 28.8115 70.4697 28.8384 70.406 28.7713C70.3424 28.7041 70.2914 28.6101 70.2914 28.5698C70.2914 28.3953 70.0877 28.1402 69.9603 28.1402C69.8839 28.1402 69.8712 28.2207 69.9221 28.3013C69.9731 28.4087 69.9603 28.4356 69.8967 28.3684C69.833 28.3013 69.782 28.1804 69.782 28.0999C69.782 28.0059 69.6802 27.9387 69.5656 27.9387C69.4509 27.9387 69.3109 27.885 69.2472 27.8179C69.1835 27.7508 69.2217 27.7373 69.3363 27.8045C69.5019 27.9119 69.5019 27.8985 69.3491 27.697C69.1453 27.4285 68.8906 27.3882 69.0307 27.6299C69.0944 27.7508 69.0562 27.7508 68.9161 27.6165C68.6614 27.4016 68.6232 27.2674 68.8651 27.4151C68.967 27.4822 68.967 27.4419 68.8397 27.2942C68.6359 27.0257 68.3812 26.9854 68.5213 27.2271C68.5722 27.3345 68.5595 27.3614 68.4958 27.2942C68.4322 27.2271 68.3812 27.1062 68.3812 27.0257C68.3812 26.9317 68.2666 26.8645 68.1265 26.8645C67.9864 26.8645 67.8718 26.7705 67.8718 26.6631C67.8718 26.5557 67.7699 26.4617 67.6553 26.4617C67.5407 26.4617 67.4006 26.408 67.337 26.3409C67.2733 26.2737 67.3115 26.2603 67.4261 26.3274C67.5917 26.4349 67.5917 26.4214 67.4388 26.22C67.2351 25.9515 66.9804 25.9112 67.1205 26.1529C67.1841 26.2737 67.1459 26.2737 67.0059 26.1394C66.7512 25.9246 66.713 25.7903 66.9549 25.938C67.0568 26.0052 67.0568 25.9649 66.9294 25.8172C66.7257 25.5486 66.471 25.5083 66.6111 25.75C66.662 25.8575 66.6493 25.8843 66.5856 25.8172C66.5219 25.75 66.471 25.656 66.471 25.6158C66.471 25.4412 66.2672 25.1861 66.1399 25.1861C66.0635 25.1861 66.0507 25.2666 66.1017 25.3472C66.1526 25.4546 66.1399 25.4815 66.0762 25.4144C66.0125 25.3472 65.9616 25.2532 65.9616 25.2129C65.9616 25.0384 65.7578 24.7833 65.6305 24.7833C65.5541 24.7833 65.5414 24.8638 65.5923 24.9444C65.6432 25.0518 65.6305 25.0787 65.5668 25.0115C65.5031 24.9444 65.4522 24.8235 65.4522 24.743C65.4522 24.649 65.3503 24.5818 65.2357 24.5818C65.1211 24.5818 64.981 24.5281 64.9173 24.461C64.8664 24.3939 64.8791 24.3804 64.981 24.4341C65.2994 24.6356 65.1211 24.3804 64.7136 24.0984L64.3061 23.7896L64.5608 24.1119L64.8155 24.4207L64.4716 24.179C64.2806 24.0582 64.1533 23.8836 64.2042 23.803C64.2424 23.7359 64.2169 23.709 64.1533 23.7493C64.0769 23.803 63.6693 23.5748 63.2364 23.2391L62.4595 22.6348L62.4468 23.2794C62.4341 23.6285 62.4086 23.803 62.3704 23.6688C62.2176 23.0377 61.7082 23.897 61.6063 24.9712C61.5681 25.3472 61.7209 27.3748 61.9374 29.4829C62.1539 31.5911 62.4977 35.0151 62.7142 37.0964C63.5929 45.7438 63.8731 48.6038 64.2424 52.1353C65.3885 63.5219 65.3376 63.1057 65.7196 63.9113C66.0125 64.5021 66.4328 64.9721 66.5347 64.7975C66.5856 64.717 66.6875 65.1467 66.7639 65.7509C66.853 66.3551 66.9422 66.8788 66.9804 66.9191C67.0059 66.946 67.7063 66.9057 68.5213 66.8117C69.3363 66.7177 70.3806 66.6774 70.8518 66.7311C72.8511 66.9191 75.016 67.8993 76.3023 69.1884C76.7098 69.5912 76.939 69.8463 76.8117 69.7523C76.6843 69.6583 76.7734 69.8866 77.0281 70.3029C77.6394 71.2831 78.187 72.9481 78.378 74.4117C78.5691 75.9156 78.4035 77.4732 77.8814 79.0308C77.3592 80.5884 76.7862 81.5015 75.5127 82.8577C74.2138 84.2407 73.0422 84.9792 71.2975 85.5029C69.9985 85.8923 67.6681 85.9326 66.4073 85.5701C65.5159 85.3149 63.9622 84.5898 63.3128 84.1064L62.9052 83.811L63.2236 84.2139L63.542 84.6033L63.1854 84.2676C62.9817 84.0796 62.5614 83.5693 62.243 83.1262C61.7082 82.3877 61.4535 81.8775 60.5111 79.6753L60.18 78.8965L59.7343 79.0979C59.2122 79.3262 59.1103 79.3396 59.1994 79.1785C59.2504 79.1114 59.0084 78.9234 58.69 78.7623C58.2188 78.5206 57.9641 78.4669 57.3656 78.534C56.5888 78.6011 56.2704 78.7488 42.0202 85.3418C38.7983 86.8323 34.1246 88.9941 31.6413 90.1354C25.5413 92.9418 24.3825 93.5326 23.8985 94.1369C23.4019 94.7143 23.3382 95.3588 23.7585 95.5199C23.9877 95.6139 23.9113 95.681 23.2363 96.0033C22.8033 96.2047 22.4722 96.3927 22.4977 96.4196C22.5359 96.4464 56.9581 112.533 59.4414 113.674C60.1291 113.983 60.7021 114.225 60.7276 114.198C60.7531 114.171 61.1351 113.392 61.5808 112.466C62.3067 110.948 62.4977 110.666 63.5929 109.498C64.6372 108.397 64.981 108.128 66.0253 107.605C67.4134 106.893 68.5213 106.571 70.0113 106.463C72.2271 106.316 75.067 107.336 76.5952 108.84C76.9772 109.216 77.2064 109.485 77.1046 109.431C76.9517 109.35 76.9517 109.377 77.1173 109.592C77.5121 110.075 78.2634 111.821 78.5181 112.855C78.862 114.225 78.8874 116.346 78.5691 117.702C77.8814 120.67 76.0094 123.167 73.5006 124.47C72.1125 125.195 71.2848 125.437 69.5528 125.625C68.8524 125.692 68.0628 125.826 67.7954 125.893C66.8658 126.162 66.2163 127.021 65.9743 128.31C65.8852 128.82 63.0581 155.501 62.3959 162.255C62.1539 164.592 62.2303 165.384 62.727 165.961C63.0326 166.31 63.109 166.351 63.2364 166.176C63.3764 165.975 63.3255 167.492 63.1345 169.05C63.0708 169.587 63.0835 169.694 63.2364 169.587C63.3892 169.493 94.1947 145.806 96.1686 144.262L96.8308 143.752L95.9521 142.315C94.4366 139.871 93.9527 138.126 94.08 135.507C94.1183 134.447 94.2329 133.721 94.4621 132.983C96.2195 127.236 102.243 124.282 107.503 126.578C108.521 127.035 109.948 128.042 110.533 128.726C110.826 129.062 110.839 129.116 110.61 128.914L110.291 128.646L110.572 129.076C111.539 130.539 112.125 132.688 112.125 134.742C112.113 136.608 111.896 137.589 110.979 139.724C110.673 140.422 110.406 141.268 110.368 141.603C110.304 142.275 110.623 143.295 110.852 143.148C111.03 143.027 111.005 143.175 110.788 143.524C110.61 143.819 110.623 143.859 111.145 144.235C111.438 144.464 117.869 149.445 125.433 155.313C138.384 165.357 143.033 168.942 143.427 169.184C143.568 169.278 143.593 169.157 143.529 168.58C143.478 168.177 142.498 158.522 141.352 147.109C140.193 135.695 139.225 126.162 139.187 125.92L139.11 125.463L138.283 125.517C137.709 125.544 137.468 125.504 137.468 125.396C137.468 125.222 136.78 124.644 136.385 124.497C136.245 124.443 135.443 124.309 134.602 124.201C132.475 123.919 131.202 123.49 129.852 122.59C129.381 122.268 129.19 122.187 129.317 122.362C129.419 122.509 129.266 122.348 128.961 122.013C127.369 120.227 126.337 117.044 126.567 114.641C126.936 110.827 128.897 107.726 131.928 106.141C133.545 105.309 134.768 105.04 136.691 105.107C138.55 105.188 139.785 105.537 141.148 106.383C142.027 106.933 143.109 107.873 143.02 108.008C142.943 108.155 144.408 110.116 144.599 110.116C144.726 110.116 145.809 112.13 146.038 112.788C146.089 112.962 145.936 113.03 154.341 109.136C158.34 107.283 166.299 103.603 172.043 100.945C184.37 95.2379 183.185 95.8153 183.185 95.6139C183.185 95.5199 182.765 95.2514 182.269 95.0097C180.218 94.016 179.314 93.5326 179.48 93.5326C179.798 93.5326 179.149 92.915 178.372 92.4853C177.964 92.257 176.156 91.3842 174.335 90.5383C172.514 89.6923 168.222 87.6782 164.784 86.0803C146.318 77.4464 146.611 77.5806 145.936 77.4061C145.108 77.1912 144.306 77.3121 143.759 77.7552C143.517 77.9566 142.918 78.6683 142.447 79.3531C140.689 81.8372 138.983 83.0994 136.449 83.7976C135.29 84.1199 133.099 84.093 131.851 83.7439C130.884 83.4754 129.215 82.6965 128.757 82.2669C128.553 82.0923 128.528 82.0923 128.604 82.2534C128.655 82.3609 128.413 82.1326 128.057 81.7298C127.7 81.3269 127.191 80.5481 126.91 79.9842C123.905 73.888 127.216 66.5566 133.647 65.1198C134.411 64.9452 134.997 64.9184 136.551 64.999C137.608 65.0392 138.486 65.0392 138.486 64.9855C138.486 64.9318 138.766 62.1926 139.123 58.9028C140.142 49.2618 142.943 22.514 142.943 22.4334C142.943 22.2857 142.714 22.4066 141.988 22.984ZM91.5076 45.0187C91.6732 45.2335 91.6604 45.2469 91.4694 45.0724C91.3421 44.9784 91.2402 44.871 91.2402 44.8441C91.2402 44.7367 91.3421 44.8038 91.5076 45.0187ZM105.567 84.469C107.553 85.0195 109.234 85.9729 110.533 87.2888C110.89 87.6379 111.056 87.8393 110.915 87.7453C110.686 87.5708 110.699 87.5976 110.954 88.0273C111.425 88.7927 112.074 90.1892 112.304 90.9142C112.596 91.8542 112.889 93.7206 112.889 94.6068C112.889 95.4931 112.596 97.3595 112.304 98.2994C111.145 102.032 108.127 104.986 104.421 106.034C102.982 106.437 100.384 106.437 98.9447 106.034C97.9387 105.752 96.3086 104.986 95.4427 104.396C95.0479 104.114 95.0097 104.114 95.1752 104.342C95.2644 104.49 95.0734 104.302 94.7423 103.939C89.8012 98.5008 91.2529 89.2358 97.6203 85.6238C98.7919 84.9524 99.4032 84.7241 100.791 84.3884C102.078 84.0796 104.332 84.1199 105.567 84.469Z" stroke="black" stroke-width="11"/>
<path d="M141.988 22.984C141.021 23.7493 140.766 23.9105 140.842 23.6688C140.97 23.3465 140.422 22.9034 139.9 22.9034C139.212 22.9034 138.27 23.4539 136.143 25.1055C135.15 25.8709 129.343 30.3423 123.23 35.0419C117.117 39.7416 111.781 43.8505 111.387 44.1593C109.336 45.7438 108.891 46.3346 108.891 47.4222C108.878 47.9325 108.942 48.201 109.133 48.4293C109.273 48.5904 109.311 48.6844 109.234 48.6307C108.993 48.4964 109.018 48.5636 109.578 49.866C110.368 51.7056 110.533 52.5247 110.533 54.4583C110.533 56.4993 110.304 57.5063 109.476 59.2251C109.005 60.1919 108.661 60.6753 107.732 61.6421C107.082 62.3269 106.229 63.0788 105.758 63.3608C102.943 65.0795 99.2504 65.1467 96.3596 63.5219C95.9011 63.2668 95.4809 63.0922 95.4299 63.1325C95.379 63.1594 95.0861 62.8908 94.7805 62.5148C92.6155 59.8696 91.8769 56.0159 92.9084 52.6993C93.2778 51.5311 93.5452 50.9805 94.5003 49.5303C94.946 48.8455 95.3153 48.2547 95.3153 48.2144C95.3153 48.1876 94.513 47.5162 93.5325 46.7374C91.9406 45.4618 91.4312 44.9918 91.9151 45.2738C91.9915 45.3141 91.9024 45.2067 91.6859 45.0052C91.4821 44.8173 91.2402 44.6964 91.151 44.7233C91.0619 44.7501 90.96 44.7098 90.9091 44.6293C90.8454 44.5353 90.8836 44.5218 90.9982 44.589C91.151 44.6964 91.151 44.6695 90.9982 44.4816C90.9091 44.3473 90.7308 44.2667 90.6162 44.2801C90.5143 44.307 90.4124 44.2264 90.4124 44.119C90.4124 44.0116 90.3105 43.9176 90.1959 43.9176C90.0813 43.9176 89.9412 43.8639 89.8776 43.7968C89.8139 43.7296 89.8521 43.7162 89.9667 43.7833C90.1323 43.8907 90.1323 43.8773 89.9794 43.6759C89.8012 43.4342 89.521 43.3536 89.6483 43.5819C89.7757 43.7968 89.6356 43.7296 89.4446 43.4879C89.2918 43.2865 89.2918 43.2731 89.4573 43.3805C89.6229 43.4879 89.6229 43.4745 89.47 43.2731C89.279 43.018 89.0116 42.9642 89.1517 43.2059C89.2154 43.2999 89.1899 43.3134 89.088 43.2596C88.9989 43.1925 88.9607 43.1119 88.9989 43.0717C89.088 42.9777 88.8333 42.642 88.6678 42.642C88.6041 42.642 88.5913 42.7225 88.6423 42.8031C88.6932 42.9105 88.6805 42.9374 88.6168 42.8702C88.5531 42.8031 88.5022 42.6823 88.5022 42.6017C88.5022 42.5077 88.4003 42.4406 88.2857 42.4406C88.1711 42.4406 88.031 42.3869 87.9673 42.3197C87.9037 42.2526 87.9419 42.2391 88.0565 42.3063C88.222 42.4137 88.222 42.4003 88.0692 42.1989C87.8909 41.9572 87.6108 41.8766 87.7381 42.1049C87.8655 42.3197 87.7254 42.2526 87.5344 42.0109C87.3815 41.8095 87.3815 41.796 87.5471 41.9035C87.7126 42.0109 87.7126 41.9975 87.5598 41.796C87.3688 41.5409 87.1014 41.4872 87.2415 41.7289C87.3051 41.8229 87.2797 41.8363 87.1778 41.7826C87.0886 41.7155 87.0504 41.6349 87.0886 41.5946C87.1778 41.5006 86.9231 41.1649 86.7575 41.1649C86.6939 41.1649 86.6811 41.2321 86.7321 41.3261C86.7957 41.4201 86.7703 41.4335 86.6684 41.3798C86.5792 41.3126 86.541 41.2321 86.5792 41.1918C86.6684 41.0978 86.4137 40.7621 86.2481 40.7621C86.1845 40.7621 86.1717 40.8427 86.2227 40.9232C86.2736 41.0307 86.2609 41.0575 86.1972 40.9904C86.1335 40.9232 86.0826 40.8024 86.0826 40.7218C86.0826 40.6547 86.0062 40.5607 85.9043 40.5204C85.8024 40.4801 85.7642 40.5204 85.8152 40.6144C85.9552 40.8427 85.8152 40.789 85.6241 40.5338C85.4713 40.3324 85.4713 40.319 85.6369 40.4264C85.8024 40.5338 85.8024 40.5204 85.6496 40.319C85.4586 40.0639 85.1912 40.0102 85.3312 40.2519C85.3949 40.3459 85.3694 40.3593 85.2676 40.3056C85.1784 40.2384 85.1402 40.1579 85.1784 40.1176C85.2676 40.0236 85.0129 39.6879 84.8473 39.6879C84.7836 39.6879 84.7709 39.7685 84.8218 39.849C84.8728 39.9565 84.86 39.9833 84.7964 39.9162C84.7327 39.849 84.6818 39.7282 84.6818 39.6476C84.6818 39.5536 84.5799 39.4865 84.4653 39.4865C84.3507 39.4865 84.2106 39.4328 84.1469 39.3656C84.0832 39.2985 84.1214 39.2851 84.236 39.3522C84.4016 39.4596 84.4016 39.4462 84.2488 39.2448C84.0705 39.0031 83.7903 38.9225 83.9177 39.1508C84.045 39.3656 83.9049 39.2985 83.7139 39.0568C83.5611 38.8554 83.5611 38.842 83.7267 38.9494C83.8922 39.0568 83.8922 39.0434 83.7394 38.842C83.5611 38.6003 83.2809 38.5197 83.4083 38.748C83.5356 38.9628 83.3955 38.8957 83.2045 38.654C83.0517 38.4526 83.0517 38.4391 83.2173 38.5466C83.3828 38.654 83.3828 38.6405 83.23 38.4391C83.039 38.184 82.7715 38.1303 82.9116 38.372C82.9753 38.466 82.9498 38.4794 82.8479 38.4257C82.7588 38.3586 82.7206 38.278 82.7588 38.2377C82.8479 38.1437 82.5933 37.808 82.4277 37.808C82.364 37.808 82.3513 37.8886 82.4022 37.9692C82.4532 38.0766 82.4404 38.1034 82.3768 38.0363C82.3131 37.9692 82.2621 37.8483 82.2621 37.7678C82.2621 37.6738 82.1603 37.6066 82.0457 37.6066C81.931 37.6066 81.791 37.5529 81.7273 37.4858C81.6636 37.4186 81.7018 37.4052 81.8164 37.4723C81.982 37.5798 81.982 37.5663 81.8292 37.3649C81.6509 37.1232 81.3707 37.0427 81.4981 37.2709C81.6254 37.4858 81.4853 37.4186 81.2943 37.1769C81.1415 36.9755 81.1415 36.9621 81.307 37.0695C81.4726 37.1769 81.4726 37.1635 81.3198 36.9621C81.116 36.6935 80.8613 36.6533 81.0014 36.895C81.0523 37.0024 81.0396 37.0292 80.9759 36.9621C80.9123 36.895 80.8613 36.7741 80.8613 36.6935C80.8613 36.5996 80.7594 36.5324 80.6448 36.5324C80.5175 36.5324 80.4156 36.4653 80.4029 36.3981C80.3901 36.2102 80.1482 35.9282 80.0081 35.9282C79.9444 35.9282 79.9317 36.0087 79.9826 36.0893C80.0336 36.1967 80.0208 36.2236 79.9571 36.1564C79.8935 36.0893 79.8425 35.9685 79.8425 35.8879C79.8425 35.8208 79.7661 35.7268 79.6642 35.6865C79.5624 35.6462 79.5242 35.6865 79.5751 35.7805C79.7152 36.0087 79.5751 35.955 79.3841 35.6999C79.2313 35.4985 79.2313 35.4851 79.3968 35.5925C79.5624 35.6999 79.5624 35.6865 79.4096 35.4851C79.2313 35.2434 78.9511 35.1628 79.0784 35.3911C79.2058 35.6059 79.0657 35.5388 78.8747 35.2971C78.7219 35.0957 78.7219 35.0822 78.8874 35.1897C79.053 35.2971 79.053 35.2836 78.9002 35.0822C78.6964 34.8137 78.4417 34.7734 78.5818 35.0151C78.6327 35.1225 78.62 35.1494 78.5563 35.0822C78.4926 35.0151 78.4417 34.8942 78.4417 34.8137C78.4417 34.7197 78.3271 34.6525 78.187 34.6525C78.0469 34.6525 77.9323 34.5586 77.9323 34.4511C77.9323 34.3437 77.8304 34.2497 77.7158 34.2497C77.6012 34.2497 77.4611 34.196 77.3975 34.1289C77.3338 34.0617 77.372 34.0483 77.4866 34.1154C77.6521 34.2229 77.6521 34.2094 77.4993 34.008C77.2956 33.7395 77.0409 33.6992 77.181 33.9409C77.2446 34.0617 77.2064 34.0617 77.0663 33.9275C76.8117 33.7126 76.7734 33.5783 77.0154 33.726C77.1173 33.7932 77.1173 33.7529 76.9899 33.6052C76.7862 33.3366 76.5315 33.2964 76.6716 33.5381C76.7225 33.6455 76.7098 33.6723 76.6461 33.6052C76.5824 33.5381 76.5315 33.4441 76.5315 33.4038C76.5315 33.2292 76.3277 32.9741 76.2004 32.9741C76.124 32.9741 76.1112 33.0547 76.1622 33.1352C76.2131 33.2427 76.2004 33.2695 76.1367 33.2024C76.073 33.1352 76.0221 33.0144 76.0221 32.9338C76.0221 32.8398 75.9202 32.7727 75.8056 32.7727C75.691 32.7727 75.5509 32.719 75.4872 32.6518C75.4236 32.5847 75.4618 32.5713 75.5764 32.6384C75.7419 32.7458 75.7419 32.7324 75.5891 32.531C75.3854 32.2624 75.1307 32.2222 75.2707 32.4638C75.3344 32.5847 75.2962 32.5847 75.1561 32.4504C74.9014 32.2356 74.8632 32.1013 75.1052 32.249C75.2071 32.3161 75.2071 32.2759 75.0797 32.1282C74.876 31.8596 74.6213 31.8193 74.7613 32.061C74.8123 32.1684 74.7996 32.1953 74.7359 32.1282C74.6722 32.061 74.6213 31.967 74.6213 31.9267C74.6213 31.7522 74.4175 31.4971 74.2902 31.4971C74.2138 31.4971 74.201 31.5776 74.252 31.6582C74.3029 31.7656 74.2902 31.7925 74.2265 31.7253C74.1628 31.6582 74.1119 31.5642 74.1119 31.5239C74.1119 31.3494 73.9081 31.0942 73.7808 31.0942C73.7044 31.0942 73.6916 31.1748 73.7426 31.2554C73.7935 31.3628 73.7808 31.3896 73.7171 31.3225C73.6534 31.2554 73.6025 31.1345 73.6025 31.0539C73.6025 30.9868 73.5261 30.8928 73.4242 30.8525C73.3096 30.8123 73.2841 30.8525 73.3605 30.9734C73.4497 31.1345 73.4242 31.1345 73.2459 30.9734C72.9912 30.7585 72.953 30.6243 73.195 30.772C73.2968 30.8391 73.2968 30.7988 73.1695 30.6511C72.9657 30.3826 72.711 30.3423 72.8511 30.584C72.9021 30.6914 72.8893 30.7183 72.8257 30.6511C72.762 30.584 72.711 30.49 72.711 30.4497C72.711 30.2751 72.5073 30.02 72.3799 30.02C72.3035 30.02 72.2908 30.1006 72.3417 30.1812C72.3927 30.2886 72.3799 30.3154 72.3163 30.2483C72.2526 30.1812 72.2017 30.0603 72.2017 29.9797C72.2017 29.8857 72.087 29.8186 71.947 29.8186C71.8069 29.8186 71.6923 29.7246 71.6923 29.6172C71.6923 29.5098 71.5904 29.4158 71.4758 29.4158C71.3612 29.4158 71.2211 29.3621 71.1574 29.2949C71.0937 29.2278 71.1319 29.2144 71.2465 29.2815C71.4121 29.3889 71.4121 29.3755 71.2593 29.1741C71.0555 28.9055 70.8008 28.8652 70.9409 29.1069C70.9918 29.2144 70.9791 29.2412 70.9154 29.1741C70.8518 29.1069 70.8008 29.013 70.8008 28.9727C70.8008 28.7981 70.5971 28.543 70.4697 28.543C70.3933 28.543 70.3806 28.6236 70.4315 28.7041C70.4825 28.8115 70.4697 28.8384 70.406 28.7713C70.3424 28.7041 70.2914 28.6101 70.2914 28.5698C70.2914 28.3953 70.0877 28.1402 69.9603 28.1402C69.8839 28.1402 69.8712 28.2207 69.9221 28.3013C69.9731 28.4087 69.9603 28.4356 69.8967 28.3684C69.833 28.3013 69.782 28.1804 69.782 28.0999C69.782 28.0059 69.6802 27.9387 69.5656 27.9387C69.4509 27.9387 69.3109 27.885 69.2472 27.8179C69.1835 27.7508 69.2217 27.7373 69.3363 27.8045C69.5019 27.9119 69.5019 27.8985 69.3491 27.697C69.1453 27.4285 68.8906 27.3882 69.0307 27.6299C69.0944 27.7508 69.0562 27.7508 68.9161 27.6165C68.6614 27.4016 68.6232 27.2674 68.8651 27.4151C68.967 27.4822 68.967 27.4419 68.8397 27.2942C68.6359 27.0257 68.3812 26.9854 68.5213 27.2271C68.5722 27.3345 68.5595 27.3614 68.4958 27.2942C68.4322 27.2271 68.3812 27.1062 68.3812 27.0257C68.3812 26.9317 68.2666 26.8645 68.1265 26.8645C67.9864 26.8645 67.8718 26.7705 67.8718 26.6631C67.8718 26.5557 67.7699 26.4617 67.6553 26.4617C67.5407 26.4617 67.4006 26.408 67.337 26.3409C67.2733 26.2737 67.3115 26.2603 67.4261 26.3274C67.5917 26.4349 67.5917 26.4214 67.4388 26.22C67.2351 25.9515 66.9804 25.9112 67.1205 26.1529C67.1841 26.2737 67.1459 26.2737 67.0059 26.1394C66.7512 25.9246 66.713 25.7903 66.9549 25.938C67.0568 26.0052 67.0568 25.9649 66.9294 25.8172C66.7257 25.5486 66.471 25.5083 66.6111 25.75C66.662 25.8575 66.6493 25.8843 66.5856 25.8172C66.5219 25.75 66.471 25.656 66.471 25.6158C66.471 25.4412 66.2672 25.1861 66.1399 25.1861C66.0635 25.1861 66.0507 25.2666 66.1017 25.3472C66.1526 25.4546 66.1399 25.4815 66.0762 25.4144C66.0125 25.3472 65.9616 25.2532 65.9616 25.2129C65.9616 25.0384 65.7578 24.7833 65.6305 24.7833C65.5541 24.7833 65.5414 24.8638 65.5923 24.9444C65.6432 25.0518 65.6305 25.0787 65.5668 25.0115C65.5031 24.9444 65.4522 24.8235 65.4522 24.743C65.4522 24.649 65.3503 24.5818 65.2357 24.5818C65.1211 24.5818 64.981 24.5281 64.9173 24.461C64.8664 24.3939 64.8791 24.3804 64.981 24.4341C65.2994 24.6356 65.1211 24.3804 64.7136 24.0984L64.3061 23.7896L64.5608 24.1119L64.8155 24.4207L64.4716 24.179C64.2806 24.0582 64.1533 23.8836 64.2042 23.803C64.2424 23.7359 64.2169 23.709 64.1533 23.7493C64.0769 23.803 63.6693 23.5748 63.2364 23.2391L62.4595 22.6348L62.4468 23.2794C62.4341 23.6285 62.4086 23.803 62.3704 23.6688C62.2176 23.0377 61.7082 23.897 61.6063 24.9712C61.5681 25.3472 61.7209 27.3748 61.9374 29.4829C62.1539 31.5911 62.4977 35.0151 62.7142 37.0964C63.5929 45.7438 63.8731 48.6038 64.2424 52.1353C65.3885 63.5219 65.3376 63.1057 65.7196 63.9113C66.0125 64.5021 66.4328 64.9721 66.5347 64.7975C66.5856 64.717 66.6875 65.1467 66.7639 65.7509C66.853 66.3551 66.9422 66.8788 66.9804 66.9191C67.0059 66.946 67.7063 66.9057 68.5213 66.8117C69.3363 66.7177 70.3806 66.6774 70.8518 66.7311C72.8511 66.9191 75.016 67.8993 76.3023 69.1884C76.7098 69.5912 76.939 69.8463 76.8117 69.7523C76.6843 69.6583 76.7734 69.8866 77.0281 70.3029C77.6394 71.2831 78.187 72.9481 78.378 74.4117C78.5691 75.9156 78.4035 77.4732 77.8814 79.0308C77.3592 80.5884 76.7862 81.5015 75.5127 82.8577C74.2138 84.2407 73.0422 84.9792 71.2975 85.5029C69.9985 85.8923 67.6681 85.9326 66.4073 85.5701C65.5159 85.3149 63.9622 84.5898 63.3128 84.1064L62.9052 83.811L63.2236 84.2139L63.542 84.6033L63.1854 84.2676C62.9817 84.0796 62.5614 83.5693 62.243 83.1262C61.7082 82.3877 61.4535 81.8775 60.5111 79.6753L60.18 78.8965L59.7343 79.0979C59.2122 79.3262 59.1103 79.3396 59.1994 79.1785C59.2504 79.1114 59.0084 78.9234 58.69 78.7623C58.2188 78.5206 57.9641 78.4669 57.3656 78.534C56.5888 78.6011 56.2704 78.7488 42.0202 85.3418C38.7983 86.8323 34.1246 88.9941 31.6413 90.1354C25.5413 92.9418 24.3825 93.5326 23.8985 94.1369C23.4019 94.7143 23.3382 95.3588 23.7585 95.5199C23.9877 95.6139 23.9113 95.681 23.2363 96.0033C22.8033 96.2047 22.4722 96.3927 22.4977 96.4196C22.5359 96.4464 56.9581 112.533 59.4414 113.674C60.1291 113.983 60.7021 114.225 60.7276 114.198C60.7531 114.171 61.1351 113.392 61.5808 112.466C62.3067 110.948 62.4977 110.666 63.5929 109.498C64.6372 108.397 64.981 108.128 66.0253 107.605C67.4134 106.893 68.5213 106.571 70.0113 106.463C72.2271 106.316 75.067 107.336 76.5952 108.84C76.9772 109.216 77.2064 109.485 77.1046 109.431C76.9517 109.35 76.9517 109.377 77.1173 109.592C77.5121 110.075 78.2634 111.821 78.5181 112.855C78.862 114.225 78.8874 116.346 78.5691 117.702C77.8814 120.67 76.0094 123.167 73.5006 124.47C72.1125 125.195 71.2848 125.437 69.5528 125.625C68.8524 125.692 68.0628 125.826 67.7954 125.893C66.8658 126.162 66.2163 127.021 65.9743 128.31C65.8852 128.82 63.0581 155.501 62.3959 162.255C62.1539 164.592 62.2303 165.384 62.727 165.961C63.0326 166.31 63.109 166.351 63.2364 166.176C63.3764 165.975 63.3255 167.492 63.1345 169.05C63.0708 169.587 63.0835 169.694 63.2364 169.587C63.3892 169.493 94.1947 145.806 96.1686 144.262L96.8308 143.752L95.9521 142.315C94.4366 139.871 93.9527 138.126 94.08 135.507C94.1183 134.447 94.2329 133.721 94.4621 132.983C96.2195 127.236 102.243 124.282 107.503 126.578C108.521 127.035 109.948 128.042 110.533 128.726C110.826 129.062 110.839 129.116 110.61 128.914L110.291 128.646L110.572 129.076C111.539 130.539 112.125 132.688 112.125 134.742C112.113 136.608 111.896 137.589 110.979 139.724C110.673 140.422 110.406 141.268 110.368 141.603C110.304 142.275 110.623 143.295 110.852 143.148C111.03 143.027 111.005 143.175 110.788 143.524C110.61 143.819 110.623 143.859 111.145 144.235C111.438 144.464 117.869 149.445 125.433 155.313C138.384 165.357 143.033 168.942 143.427 169.184C143.568 169.278 143.593 169.157 143.529 168.58C143.478 168.177 142.498 158.522 141.352 147.109C140.193 135.695 139.225 126.162 139.187 125.92L139.11 125.463L138.283 125.517C137.709 125.544 137.468 125.504 137.468 125.396C137.468 125.222 136.78 124.644 136.385 124.497C136.245 124.443 135.443 124.309 134.602 124.201C132.475 123.919 131.202 123.49 129.852 122.59C129.381 122.268 129.19 122.187 129.317 122.362C129.419 122.509 129.266 122.348 128.961 122.013C127.369 120.227 126.337 117.044 126.567 114.641C126.936 110.827 128.897 107.726 131.928 106.141C133.545 105.309 134.768 105.04 136.691 105.107C138.55 105.188 139.785 105.537 141.148 106.383C142.027 106.933 143.109 107.873 143.02 108.008C142.943 108.155 144.408 110.116 144.599 110.116C144.726 110.116 145.809 112.13 146.038 112.788C146.089 112.962 145.936 113.03 154.341 109.136C158.34 107.283 166.299 103.603 172.043 100.945C184.37 95.2379 183.185 95.8153 183.185 95.6139C183.185 95.5199 182.765 95.2514 182.269 95.0097C180.218 94.016 179.314 93.5326 179.48 93.5326C179.798 93.5326 179.149 92.915 178.372 92.4853C177.964 92.257 176.156 91.3842 174.335 90.5383C172.514 89.6923 168.222 87.6782 164.784 86.0803C146.318 77.4464 146.611 77.5806 145.936 77.4061C145.108 77.1912 144.306 77.3121 143.759 77.7552C143.517 77.9566 142.918 78.6683 142.447 79.3531C140.689 81.8372 138.983 83.0994 136.449 83.7976C135.29 84.1199 133.099 84.093 131.851 83.7439C130.884 83.4754 129.215 82.6965 128.757 82.2669C128.553 82.0923 128.528 82.0923 128.604 82.2534C128.655 82.3609 128.413 82.1326 128.057 81.7298C127.7 81.3269 127.191 80.5481 126.91 79.9842C123.905 73.888 127.216 66.5566 133.647 65.1198C134.411 64.9452 134.997 64.9184 136.551 64.999C137.608 65.0392 138.486 65.0392 138.486 64.9855C138.486 64.9318 138.766 62.1926 139.123 58.9028C140.142 49.2618 142.943 22.514 142.943 22.4334C142.943 22.2857 142.714 22.4066 141.988 22.984ZM91.5076 45.0187C91.6732 45.2335 91.6604 45.2469 91.4694 45.0724C91.3421 44.9784 91.2402 44.871 91.2402 44.8441C91.2402 44.7367 91.3421 44.8038 91.5076 45.0187ZM105.567 84.469C107.553 85.0195 109.234 85.9729 110.533 87.2888C110.89 87.6379 111.056 87.8393 110.915 87.7453C110.686 87.5708 110.699 87.5976 110.954 88.0273C111.425 88.7927 112.074 90.1892 112.304 90.9142C112.596 91.8542 112.889 93.7206 112.889 94.6068C112.889 95.4931 112.596 97.3595 112.304 98.2994C111.145 102.032 108.127 104.986 104.421 106.034C102.982 106.437 100.384 106.437 98.9447 106.034C97.9387 105.752 96.3086 104.986 95.4427 104.396C95.0479 104.114 95.0097 104.114 95.1752 104.342C95.2644 104.49 95.0734 104.302 94.7423 103.939C89.8012 98.5008 91.2529 89.2358 97.6203 85.6238C98.7919 84.9524 99.4032 84.7241 100.791 84.3884C102.078 84.0796 104.332 84.1199 105.567 84.469Z" stroke="black" stroke-width="11"/>
<path d="M95.0906 55.3412C95.0906 55.3754 95.22 55.5123 95.3817 55.6321C95.6243 55.8545 95.6405 55.8374 95.4302 55.5636C95.22 55.2898 95.0906 55.2043 95.0906 55.3412Z" fill="#FFCD00"/>
</svg>
